<svg width="201" height="595" viewBox="0 0 201 595" fill="none" xmlns="http://www.w3.org/2000/svg">
<g id="guitar">
<path id="fill-guitar" fill-rule="evenodd" clip-rule="evenodd" d="M80.0011 592C42.5365 585.581 27.8267 576.808 12.0011 552C-0.953891 528.022 0.216588 512.191 7.50114 482.5C11.662 469.998 16.9467 461.119 34.5011 440C39.8789 432.734 42.6894 428.409 44.0011 416L35.0011 397C29.0011 383.5 29.5011 373.5 34.5011 360C38.5011 350.5 43.674 346.007 55.5011 338.5C66.3182 333.519 72.48 331.882 83.5011 331.5L90.5011 90C87.2478 83.8445 85.1025 80.7924 80.5011 76.5L80.0011 69C84.2515 47.607 84.0436 34.4248 79.5011 9C85.8604 10.8847 89.7664 10.1413 97.5011 4C102.919 7.66212 108.422 7.72647 124.001 3C121.932 11.9962 121.398 16.0758 121.001 22.5C119.467 44.6724 120.767 54.212 124.001 70L123.501 76C118.546 81.1906 116.782 85.1653 114.501 90.5L119.501 366C125.973 375.042 134.501 379.5 143.001 378.5C150.001 378.5 156.841 374.712 165.001 366C169.163 372.001 170.454 373.93 169.501 373C170.762 379.523 169.922 383.268 167.501 390C158.886 408.496 155.617 416.392 156.501 420C158.576 429.873 163.283 435.136 172.001 444.5C188.001 463.5 196.001 476 199.001 502.5C201.601 535.384 192.501 555 179.001 568.5C163.001 584.5 126.001 598 80.0011 592ZM76 441C73.4007 441.013 73.0264 442.037 72.5 444V466.5C72.932 468.503 73.7155 469.012 75.5 469.5H124.5C126.971 469.195 127.711 468.63 128 467V444.5C128.008 441.731 127.153 441.058 124.5 441H76ZM72.5 414.5V392.5C72.7295 390.348 73.4079 389.62 76 389.5H125.5C127.722 390.024 128.146 391.02 128 393.5V414.5C128.018 416.564 127.514 417.519 123.5 418H77C73.8145 417.649 72.7261 416.99 72.5 414.5ZM93 42C94.1172 39.4072 93.7199 38.4018 92 37L91.5 35.5C91.1776 34.3707 90.6919 33.983 89.5 33.5C87.8999 33.9242 87.5433 34.5198 87.5 36L87 37C85.5426 37.7327 85 39 85.5 40.5C85.5 42.5 86.9951 43.358 89 44C91.2115 43.9304 91.983 43.3813 93 42ZM70.9997 511C70.4075 508.88 70.3677 507.402 70.4997 504.5C71.4271 500.996 72.243 499.641 75 500H126.5C128.32 500.063 128.916 500.73 129.5 502.5C130.112 504.485 130.243 505.481 130 507C130.29 511.075 129.642 512.358 127.5 513H74C72.5256 513.143 71.8206 512.789 70.9997 511ZM78.0005 479C74.4999 479.5 74.3521 481.658 75.0005 484.5C75.7335 488.666 76.5036 489.148 79 489.5L123 486.5C126 486 126.5 483.5 125.5 480.5C125.191 477.202 123.5 476 121 476L78.0005 479ZM52.9998 371.5C55.7613 371.5 58.145 373.742 57.9998 376.5C57.8618 379.123 55.6268 381 52.9998 381C50.3728 381 48.6381 379.123 48.5 376.5C48.3549 373.742 50.2384 371.5 52.9998 371.5ZM150.499 469.5C142.919 471.112 147.042 477.648 147 477.499C147 477.499 146.745 484.393 153 483.499C158.5 482.713 157.5 477.499 157.5 477.499C156.778 475.697 156.476 474.831 156.499 474C156.499 474 155.486 468.439 150.499 469.5ZM159.999 500C157.719 496.67 159 493.5 162.499 492C166.19 490.916 169 493.5 169.5 496.5L169.5 497.5C170.626 499.234 170.871 500.311 170.5 502.5C169.021 504.927 168.029 505.916 165.5 506C162.674 505.737 161.608 505.043 160.5 502.5C160.238 501.655 160.091 501.179 159.999 500ZM171 524C170.5 520.5 167.735 518.298 163.999 519.5C160.324 521.59 160 524 161.499 527.5C161.911 528.431 161.968 528.989 162 530C163.856 533.015 165.225 533.934 168.5 533.5C172 532 173.295 528.948 171.5 525.5L171 524ZM88.4999 61.9997C91.1366 61.9087 92.0575 61.0599 92.9999 58.4997C92.8749 56.6493 92.6278 55.7386 90.9999 54.9997C90.7848 52.8129 90.4099 51.9422 88.4999 51.9997C87.2838 52.351 86.78 52.8375 86.4999 54.5V55.5C85.4997 55.5 84.3398 57.6547 85 59.5C85.59 61.6069 86.4095 61.7163 87.8897 61.9139C88.0816 61.9395 88.2849 61.9666 88.4999 61.9997ZM119.5 59C117 62 114.5 61.5 112.5 60.5C110.5 58.0001 110.999 55.5001 113 54.5L113.5 53C113.541 51.8187 114.052 51.42 115.5 51C117.12 51.5585 117.481 52.1564 117.5 53.5L118 54.5C119.461 55.8133 119.959 56.7035 119.5 59ZM114.499 43.5C116.796 43.1114 117.916 42.5895 118.999 40C118.53 37.8558 118.136 37.0498 117 36.5L116.5 35.5C116.655 34.2801 116.13 33.7569 114.5 33C112.935 33.5258 112.644 34.1573 112.5 35.5L111.999 36.5C110.751 37.5365 110.382 38.2818 110.499 40C111.11 42.0739 111.751 43.0094 114.499 43.5ZM115.501 25.5C112 25.5 109.959 21.3734 112.501 19L113.5 18.5C113.157 16.6833 113.589 16.0973 115 15.5C116.833 15.6977 117.498 16.1119 117.5 18C118.93 19.4179 119.406 20.2123 119.5 21.5C119.182 23.9411 118.7 25.0937 115.501 25.5ZM88 25.5001C90.5182 25.3714 91.6465 24.8259 92.5 22.0001C92.0282 19.7609 91.6533 18.8868 90.5 19V18C90.1531 16.2418 89.6847 15.7461 88 15.5C86.5635 15.8394 86.188 16.4505 86 18V19.0001C84.4477 19.2904 84.1697 20.13 84 22.0001C84.4817 24.387 85.5105 25.0226 88 25.5001Z" fill="#AA0B0B"/>
<g id="stroke-guitar">
<path d="M119.187 391.857H81.5131C80.2961 391.857 79.3091 392.844 79.3091 394.061V413.152C79.3091 414.369 80.2961 415.356 81.5131 415.356H119.187C120.404 415.356 121.391 414.369 121.391 413.152V394.061C121.391 392.844 120.404 391.857 119.187 391.857ZM119.391 413.152C119.391 413.265 119.299 413.357 119.187 413.357H117.58V397.653C117.58 397.541 117.488 397.449 117.376 397.449H83.3241C83.2121 397.449 83.1191 397.541 83.1191 397.654V413.358H81.5121C81.4001 413.358 81.3081 413.266 81.3081 413.153V394.062C81.3081 393.949 81.4001 393.857 81.5121 393.857H119.187C119.299 393.857 119.391 393.949 119.391 394.062V413.152Z" fill="#282828"/>
<path d="M119.187 443.357H81.5131C80.2961 443.357 79.3091 444.344 79.3091 445.561V464.652C79.3091 465.869 80.2961 466.856 81.5131 466.856H119.187C120.404 466.856 121.391 465.869 121.391 464.652V445.561C121.391 444.344 120.404 443.357 119.187 443.357ZM119.391 464.652C119.391 464.765 119.299 464.857 119.187 464.857H117.58V449.153C117.58 449.041 117.488 448.949 117.376 448.949H83.3241C83.2121 448.949 83.1191 449.041 83.1191 449.154V464.858H81.5121C81.4001 464.858 81.3081 464.766 81.3081 464.653V445.562C81.3081 445.449 81.4001 445.357 81.5121 445.357H119.187C119.299 445.357 119.391 445.449 119.391 445.562V464.652Z" fill="#282828"/>
<path d="M91.5461 90.357H91.5371C91.2651 90.357 91.0421 90.575 91.0371 90.848L83.5371 501.973C83.5321 502.249 83.7521 502.477 84.0281 502.482H84.0371C84.3091 502.482 84.5321 502.264 84.5371 501.991L92.0371 90.866C92.0421 90.59 91.8221 90.362 91.5461 90.357ZM92.9751 41.826L92.8821 41.904L92.9441 42.295C92.8831 42.069 92.4461 42.885 92.2041 42.899C91.9291 42.919 91.7221 43.158 91.7421 43.434L94.9131 88.476L89.8711 502.101C89.8681 502.377 90.0891 502.604 90.3651 502.607H90.3711C90.6441 502.607 90.8681 502.387 90.8711 502.113L95.9111 88.446L92.6321 43.105L92.9471 42.763L100.038 89.602L95.8711 502.185C95.8681 502.461 96.0901 502.687 96.3661 502.69H96.3711C96.6451 502.69 96.8681 502.469 96.8711 502.195L101.032 89.532L93.6511 41.018C93.4171 41.425 92.9751 41.826 92.9751 41.826ZM93.1671 37.845L91.2041 24.94C91.1641 24.667 90.9071 24.479 90.6351 24.52C90.3621 24.561 90.1741 24.816 90.2161 25.089L92.1451 37.254C92.4011 37.387 92.8191 37.612 93.1671 37.845ZM112.534 42.697C112.261 42.653 112.004 42.838 111.96 43.11L104.371 89.688L102.371 502.105C102.37 502.381 102.593 502.606 102.869 502.608H102.871C103.146 502.608 103.37 502.386 103.371 502.11L105.365 89.772L112.948 43.272C112.992 42.999 112.807 42.741 112.534 42.697ZM117.162 61.357C117.201 61.084 117.01 60.831 116.737 60.792C116.463 60.751 116.211 60.944 116.172 61.217L112.371 88.777L115.131 502.204C115.133 502.479 115.357 502.701 115.631 502.701H115.634C115.91 502.699 116.133 502.474 116.131 502.198L113.366 88.844L117.162 61.357ZM112.923 60.61C112.651 60.579 112.402 60.78 112.374 61.055L109.371 89.606L108.631 502.106C108.631 502.382 108.854 502.606 109.13 502.607C109.406 502.607 109.631 502.384 109.631 502.108L110.368 89.659L113.368 61.159C113.397 60.885 113.198 60.639 112.923 60.61Z" fill="#282828"/>
<path d="M35.7781 578.552C35.4941 578.552 35.2071 578.472 34.9521 578.303C7.78512 560.349 0.537109 532.226 0.537109 518.44C0.537109 502.511 2.77811 483.641 19.4031 464.458L22.6931 460.672C35.8581 445.539 45.3701 434.605 45.3701 425.441C45.3701 421.127 42.4951 415.591 39.1671 409.18C34.8441 400.853 29.9441 391.416 29.3731 381.024C28.5691 366.419 34.1071 356.397 47.8911 347.514C60.8591 339.156 76.8941 337.718 81.7651 337.471L88.7881 87.816C89.0171 75.9 80.2991 70.451 79.9271 70.225C79.4041 69.906 79.1241 69.299 79.2241 68.695C84.9271 34.477 77.9181 9.60604 77.8461 9.35904C77.6971 8.84204 77.8361 8.28404 78.2111 7.89804C78.5861 7.51104 79.1381 7.35604 79.6611 7.49004C86.9651 9.36704 89.8751 7.70604 92.4421 5.68104C93.0941 5.16904 94.0351 5.28104 94.5491 5.93104C95.0621 6.58204 94.9501 7.52504 94.3001 8.03804C91.6651 10.114 88.2821 12.166 81.3211 10.923C82.9181 17.974 86.8921 39.921 82.3391 68.242C84.8711 70.096 92.0091 76.358 91.7871 87.888L84.7241 338.964C84.7011 339.769 84.0461 340.413 83.2411 340.422C83.0501 340.424 63.9291 340.749 49.5161 350.037C36.5901 358.368 31.6211 367.297 32.3681 380.86C32.9051 390.607 37.6461 399.741 41.8301 407.799C45.3391 414.559 48.3701 420.397 48.3701 425.443C48.3701 435.73 38.5491 447.019 24.9561 462.644L21.6701 466.426C5.6911 484.864 3.53711 503.068 3.53711 518.444C3.53711 531.632 10.5021 558.552 36.6061 575.804C37.2971 576.261 37.4871 577.191 37.0301 577.883C36.7421 578.316 36.2641 578.552 35.7781 578.552Z" fill="#282828"/>
<path d="M99.0371 594.857C82.4781 594.857 67.5641 592.558 54.7071 588.024C53.9261 587.749 53.5161 586.892 53.7921 586.11C54.0671 585.328 54.9251 584.921 55.7061 585.195C68.2411 589.616 82.8201 591.858 99.0381 591.858C175.264 591.858 194.68 554.804 197.544 523.72C199.834 498.876 183.608 466.994 167.263 451.703C152.635 438.019 150.068 424.342 158.68 405.971C165.441 391.549 167.926 385.836 167.921 377.623C163.843 381.213 154.898 387.085 141.128 385.599C120.168 383.333 117.039 370.874 117.039 363.65L113.29 88.21C113.149 86.999 112.249 76.564 121.649 68.517C120.636 62.981 115.665 32.748 122.139 4.80904C116.149 6.99104 102.088 11.179 96.4221 4.85804C95.8691 4.24104 95.9211 3.29204 96.5371 2.74004C97.1541 2.18604 98.1031 2.23904 98.6551 2.85504C103.397 8.14304 118.337 3.29304 123.693 0.98004C124.22 0.75304 124.83 0.84604 125.265 1.21904C125.701 1.59304 125.884 2.18204 125.739 2.73704C117.676 33.52 124.685 68.456 124.757 68.805C124.87 69.357 124.665 69.926 124.225 70.278C114.996 77.661 116.26 87.802 116.274 87.904C116.282 87.965 116.287 88.025 116.288 88.086L120.038 363.628C120.038 371.245 123.753 380.702 141.449 382.615C158.855 384.495 167.744 373.636 168.114 373.173C168.5 372.69 169.146 372.492 169.733 372.676C170.323 372.86 170.741 373.385 170.784 374.002C171.55 384.98 169.137 390.728 161.396 407.243C153.327 424.456 155.621 436.703 169.313 449.511C186.174 465.284 202.905 498.246 200.532 523.994C197.551 556.322 177.525 594.857 99.0371 594.857Z" fill="#282828"/>
<path d="M49.5361 585.941C49.3361 585.941 49.1331 585.901 48.9371 585.816C46.3671 584.695 42.4061 582.727 40.3201 581.592C39.5921 581.196 39.3231 580.285 39.7191 579.557C40.1151 578.83 41.0271 578.561 41.7541 578.956C43.7851 580.061 47.6381 581.976 50.1371 583.065C50.8961 583.396 51.2441 584.28 50.9121 585.04C50.6661 585.604 50.1151 585.941 49.5361 585.941Z" fill="#282828"/>
<path d="M114.412 91.357H90.6621C89.8331 91.357 89.1621 90.686 89.1621 89.857C89.1621 89.028 89.8331 88.357 90.6621 88.357H114.412C115.241 88.357 115.912 89.028 115.912 89.857C115.912 90.685 115.241 91.357 114.412 91.357Z" fill="#282828"/>
<path d="M114.412 114.69H90.6621C90.3861 114.69 90.1621 114.466 90.1621 114.19C90.1621 113.914 90.3861 113.69 90.6621 113.69H114.412C114.688 113.69 114.912 113.914 114.912 114.19C114.912 114.466 114.689 114.69 114.412 114.69Z" fill="#282828"/>
<path d="M114.412 135.69H90.6621C90.3861 135.69 90.1621 135.466 90.1621 135.19C90.1621 134.914 90.3861 134.69 90.6621 134.69H114.412C114.688 134.69 114.912 134.914 114.912 135.19C114.912 135.466 114.689 135.69 114.412 135.69Z" fill="#282828"/>
<path d="M114.412 155.69H88.3701C88.0941 155.69 87.8701 155.466 87.8701 155.19C87.8701 154.914 88.0941 154.69 88.3701 154.69H114.412C114.688 154.69 114.912 154.914 114.912 155.19C114.912 155.466 114.689 155.69 114.412 155.69Z" fill="#282828"/>
<path d="M116.537 174.357H88.2041C87.9281 174.357 87.7041 174.133 87.7041 173.857C87.7041 173.581 87.9281 173.357 88.2041 173.357H116.537C116.813 173.357 117.037 173.581 117.037 173.857C117.037 174.133 116.814 174.357 116.537 174.357Z" fill="#282828"/>
<path d="M116.537 191.69H88.2041C87.9281 191.69 87.7041 191.466 87.7041 191.19C87.7041 190.914 87.9281 190.69 88.2041 190.69H116.537C116.813 190.69 117.037 190.914 117.037 191.19C117.037 191.466 116.814 191.69 116.537 191.69Z" fill="#282828"/>
<path d="M116.537 208.19H88.2041C87.9281 208.19 87.7041 207.966 87.7041 207.69C87.7041 207.414 87.9281 207.19 88.2041 207.19H116.537C116.813 207.19 117.037 207.414 117.037 207.69C117.037 207.966 116.814 208.19 116.537 208.19Z" fill="#282828"/>
<path d="M115.704 223.857H87.3711C87.0951 223.857 86.8711 223.633 86.8711 223.357C86.8711 223.081 87.0951 222.857 87.3711 222.857H115.704C115.98 222.857 116.204 223.081 116.204 223.357C116.204 223.633 115.98 223.857 115.704 223.857Z" fill="#282828"/>
<path d="M116.037 238.69H86.3701C86.0941 238.69 85.8701 238.466 85.8701 238.19C85.8701 237.914 86.0941 237.69 86.3701 237.69H116.037C116.313 237.69 116.537 237.914 116.537 238.19C116.537 238.466 116.314 238.69 116.037 238.69Z" fill="#282828"/>
<path d="M116.204 252.024H86.5371C86.2611 252.024 86.0371 251.8 86.0371 251.524C86.0371 251.248 86.2611 251.024 86.5371 251.024H116.204C116.48 251.024 116.704 251.248 116.704 251.524C116.704 251.8 116.48 252.024 116.204 252.024Z" fill="#282828"/>
<path d="M116.037 265.024H86.3701C86.0941 265.024 85.8701 264.8 85.8701 264.524C85.8701 264.248 86.0941 264.024 86.3701 264.024H116.037C116.313 264.024 116.537 264.248 116.537 264.524C116.537 264.8 116.314 265.024 116.037 265.024Z" fill="#282828"/>
<path d="M117.537 277.19H85.3701C85.0941 277.19 84.8701 276.966 84.8701 276.69C84.8701 276.414 85.0941 276.19 85.3701 276.19H117.537C117.813 276.19 118.037 276.414 118.037 276.69C118.037 276.966 117.814 277.19 117.537 277.19Z" fill="#282828"/>
<path d="M117.371 288.69H85.2041C84.9281 288.69 84.7041 288.466 84.7041 288.19C84.7041 287.914 84.9281 287.69 85.2041 287.69H117.371C117.647 287.69 117.871 287.914 117.871 288.19C117.871 288.466 117.647 288.69 117.371 288.69Z" fill="#282828"/>
<path d="M117.371 299.69H85.2041C84.9281 299.69 84.7041 299.466 84.7041 299.19C84.7041 298.914 84.9281 298.69 85.2041 298.69H117.371C117.647 298.69 117.871 298.914 117.871 299.19C117.871 299.466 117.647 299.69 117.371 299.69Z" fill="#282828"/>
<path d="M117.204 309.524H85.0371C84.7611 309.524 84.5371 309.3 84.5371 309.024C84.5371 308.748 84.7611 308.524 85.0371 308.524H117.204C117.48 308.524 117.704 308.748 117.704 309.024C117.704 309.3 117.48 309.524 117.204 309.524Z" fill="#282828"/>
<path d="M117.371 319.357H85.2041C84.9281 319.357 84.7041 319.133 84.7041 318.857C84.7041 318.581 84.9281 318.357 85.2041 318.357H117.371C117.647 318.357 117.871 318.581 117.871 318.857C117.871 319.133 117.647 319.357 117.371 319.357Z" fill="#282828"/>
<path d="M117.037 328.69H84.8701C84.5941 328.69 84.3701 328.466 84.3701 328.19C84.3701 327.914 84.5941 327.69 84.8701 327.69H117.037C117.313 327.69 117.537 327.914 117.537 328.19C117.537 328.466 117.314 328.69 117.037 328.69Z" fill="#282828"/>
<path d="M117.037 337.024H84.8701C84.5941 337.024 84.3701 336.8 84.3701 336.524C84.3701 336.248 84.5941 336.024 84.8701 336.024H117.037C117.313 336.024 117.537 336.248 117.537 336.524C117.537 336.8 117.314 337.024 117.037 337.024Z" fill="#282828"/>
<path d="M117.037 345.19H84.8701C84.5941 345.19 84.3701 344.966 84.3701 344.69C84.3701 344.414 84.5941 344.19 84.8701 344.19H117.037C117.313 344.19 117.537 344.414 117.537 344.69C117.537 344.966 117.314 345.19 117.037 345.19Z" fill="#282828"/>
<path d="M118.037 352.774H84.4541C84.1781 352.774 83.9541 352.55 83.9541 352.274C83.9541 351.998 84.1781 351.774 84.4541 351.774H118.037C118.313 351.774 118.537 351.998 118.537 352.274C118.537 352.55 118.314 352.774 118.037 352.774Z" fill="#282828"/>
<path d="M117.787 359.857H84.4541C84.1781 359.857 83.9541 359.633 83.9541 359.357C83.9541 359.081 84.1781 358.857 84.4541 358.857H117.787C118.063 358.857 118.287 359.081 118.287 359.357C118.287 359.633 118.064 359.857 117.787 359.857Z" fill="#282828"/>
<path d="M117.787 366.857H84.3701C84.0941 366.857 83.8701 366.633 83.8701 366.357C83.8701 366.081 84.0941 365.857 84.3701 365.857H117.787C118.063 365.857 118.287 366.081 118.287 366.357C118.287 366.633 118.064 366.857 117.787 366.857Z" fill="#282828"/>
<path d="M117.537 372.94H84.2871C84.0111 372.94 83.7871 372.716 83.7871 372.44C83.7871 372.164 84.0111 371.94 84.2871 371.94H117.537C117.813 371.94 118.037 372.164 118.037 372.44C118.037 372.716 117.814 372.94 117.537 372.94Z" fill="#282828"/>
<path d="M117.287 379.107H84.2871C84.0111 379.107 83.7871 378.883 83.7871 378.607C83.7871 378.331 84.0111 378.107 84.2871 378.107H117.287C117.563 378.107 117.787 378.331 117.787 378.607C117.787 378.883 117.564 379.107 117.287 379.107Z" fill="#282828"/>
<path d="M117.454 384.94H84.2871C84.0111 384.94 83.7871 384.716 83.7871 384.44C83.7871 384.164 84.0111 383.94 84.2871 383.94H117.454C117.73 383.94 117.954 384.164 117.954 384.44C117.954 384.716 117.73 384.94 117.454 384.94Z" fill="#282828"/>
<path d="M117.871 389.774H83.8501C83.7161 389.774 83.5881 389.721 83.4951 389.626C83.4011 389.531 83.3491 389.402 83.3501 389.269L84.0381 328.769C84.0411 328.493 84.2211 328.276 84.5441 328.275C84.8201 328.278 85.0411 328.504 85.0381 328.781L84.3561 388.775H117.367L116.871 332.112C116.869 331.836 117.091 331.61 117.367 331.608H117.371C117.645 331.608 117.869 331.829 117.871 332.104L118.371 389.271C118.372 389.404 118.32 389.533 118.226 389.627C118.132 389.721 118.004 389.774 117.871 389.774Z" fill="#282828"/>
<path d="M125.285 418.357H75.4141C73.5521 418.357 72.0371 416.842 72.0371 414.98V392.234C72.0371 390.372 73.5521 388.857 75.4141 388.857H125.285C127.147 388.857 128.662 390.372 128.662 392.234V414.98C128.662 416.842 127.148 418.357 125.285 418.357ZM75.4141 389.857C74.1031 389.857 73.0371 390.923 73.0371 392.234V414.98C73.0371 416.291 74.1031 417.357 75.4141 417.357H125.285C126.596 417.357 127.662 416.291 127.662 414.98V392.234C127.662 390.923 126.596 389.857 125.285 389.857H75.4141Z" fill="#282828"/>
<path d="M125.285 469.857H75.4141C73.5521 469.857 72.0371 468.342 72.0371 466.48V443.734C72.0371 441.872 73.5521 440.357 75.4141 440.357H125.285C127.147 440.357 128.662 441.872 128.662 443.734V466.48C128.662 468.342 127.148 469.857 125.285 469.857ZM75.4141 441.357C74.1031 441.357 73.0371 442.423 73.0371 443.734V466.48C73.0371 467.791 74.1031 468.857 75.4141 468.857H125.285C126.596 468.857 127.662 467.791 127.662 466.48V443.734C127.662 442.423 126.596 441.357 125.285 441.357H75.4141Z" fill="#282828"/>
<path d="M141.662 379.232C127.201 379.232 119.466 367.519 118.428 363.482C118.359 363.214 118.52 362.942 118.788 362.873C119.054 362.807 119.328 362.965 119.397 363.233C120.385 367.077 127.786 378.233 141.663 378.233C146.78 378.233 151.895 376.444 156.867 372.916C157.093 372.755 157.405 372.81 157.564 373.034C157.724 373.26 157.671 373.572 157.446 373.731C152.301 377.381 146.99 379.232 141.662 379.232Z" fill="#282828"/>
<path d="M170.204 374.19C170.039 374.19 169.876 374.108 169.781 373.958L165.096 366.563C164.297 367.456 162.502 369.399 160.37 371.313C160.163 371.497 159.848 371.48 159.664 371.275C159.479 371.069 159.497 370.754 159.702 370.569C162.535 368.026 164.759 365.434 164.781 365.408C164.884 365.287 165.035 365.224 165.197 365.234C165.355 365.245 165.499 365.331 165.584 365.465L170.626 373.423C170.774 373.656 170.705 373.965 170.471 374.113C170.388 374.165 170.296 374.19 170.204 374.19Z" fill="#282828"/>
<path d="M30.7881 374.857C30.7801 374.857 30.7731 374.857 30.7651 374.857C30.4891 374.844 30.2761 374.611 30.2881 374.335C31.0951 356.429 42.2371 345.927 51.4411 340.271C51.6761 340.125 51.9841 340.199 52.1291 340.435C52.2741 340.67 52.2001 340.978 51.9651 341.123C42.9671 346.654 32.0751 356.913 31.2881 374.381C31.2751 374.647 31.0531 374.857 30.7881 374.857Z" fill="#282828"/>
<path d="M54.4921 339.496C54.3121 339.496 54.1391 339.399 54.0491 339.228C53.9211 338.983 54.0151 338.681 54.2601 338.553C55.2861 338.014 56.3431 337.496 57.4011 337.013C57.6531 336.898 57.9491 337.009 58.0641 337.261C58.1781 337.512 58.0681 337.809 57.8161 337.924C56.7751 338.399 55.7351 338.908 54.7251 339.439C54.6501 339.477 54.5701 339.496 54.4921 339.496Z" fill="#282828"/>
<path d="M60.7691 336.645C60.5711 336.645 60.3841 336.527 60.3051 336.332C60.2021 336.076 60.3261 335.785 60.5821 335.681C67.8901 332.734 76.0511 331.044 82.9751 331.044C83.2511 331.044 83.4751 331.268 83.4751 331.544C83.4751 331.82 83.2511 332.044 82.9751 332.044C76.1751 332.044 68.1501 333.708 60.9571 336.608C60.8951 336.633 60.8321 336.645 60.7691 336.645Z" fill="#282828"/>
<path d="M78.9021 490.005C76.7251 490.005 74.8881 488.308 74.7471 486.105C74.6001 483.812 76.3461 481.827 78.6381 481.68L122.215 478.885C124.515 478.739 126.493 480.483 126.64 482.776C126.787 485.069 125.041 487.054 122.749 487.201L79.1721 489.996C79.0811 490.002 78.9911 490.005 78.9021 490.005ZM122.485 479.876C122.417 479.876 122.349 479.879 122.28 479.883L78.7031 482.678C76.9601 482.79 75.6341 484.299 75.7451 486.041C75.8571 487.784 77.3581 489.114 79.1081 488.998L122.685 486.203C124.428 486.091 125.754 484.582 125.642 482.84C125.535 481.166 124.138 479.876 122.485 479.876Z" fill="#282828"/>
<path d="M75.2061 485.173C75.0481 485.173 74.8921 485.098 74.7951 484.959C74.3621 484.338 74.1071 483.61 74.0591 482.855C73.9121 480.562 75.6581 478.578 77.9501 478.43L121.527 475.635C123.85 475.493 125.805 477.234 125.952 479.526C125.985 480.048 125.88 480.408 125.758 480.825C125.681 481.09 125.404 481.244 125.137 481.168C124.872 481.09 124.719 480.815 124.797 480.55C124.91 480.165 124.977 479.937 124.955 479.59C124.901 478.75 124.52 477.979 123.883 477.418C123.245 476.858 122.427 476.579 121.592 476.633L78.0151 479.428C76.2721 479.54 74.9461 481.049 75.0571 482.791C75.0941 483.364 75.2861 483.916 75.6151 484.388C75.7731 484.615 75.7171 484.926 75.4901 485.084C75.4041 485.144 75.3041 485.173 75.2061 485.173Z" fill="#282828"/>
<path d="M127.417 513.588H73.2831C71.0391 513.588 70.0171 510.941 70.0171 508.482C70.0171 506.023 71.0391 503.376 73.2831 503.376H127.417C129.661 503.376 130.683 506.023 130.683 508.482C130.683 510.941 129.661 513.588 127.417 513.588ZM73.2821 504.376C71.7941 504.376 71.0161 506.441 71.0161 508.482C71.0161 510.522 71.7941 512.588 73.2821 512.588H127.416C128.904 512.588 129.682 510.522 129.682 508.482C129.682 506.441 128.904 504.376 127.416 504.376H73.2821Z" fill="#282828"/>
<path d="M114.98 508.274H100.08C100.08 508.274 99.3361 508.274 98.1881 508.274H85.7201C83.7271 508.274 77.6691 512.857 79.6621 512.857H98.1871C99.3351 512.857 100.079 512.857 100.079 512.857H120.974C122.968 512.857 116.973 508.274 114.98 508.274Z" fill="#282828"/>
<path d="M70.5791 508.037C70.3281 508.037 70.1121 507.849 70.0831 507.593C69.8201 505.278 70.3471 501.873 71.6551 500.408C72.1231 499.884 72.6851 499.607 73.2821 499.607H127.416C127.997 499.607 128.526 499.86 128.988 500.359C130.256 501.729 130.829 504.927 130.651 507.229C130.63 507.504 130.398 507.708 130.114 507.689C129.839 507.668 129.633 507.427 129.654 507.152C129.812 505.11 129.322 502.192 128.255 501.039C127.985 500.748 127.711 500.607 127.417 500.607H73.2831C72.9701 500.607 72.6831 500.76 72.4021 501.074C71.3141 502.293 70.8381 505.371 71.0771 507.481C71.1081 507.755 70.9111 508.003 70.6371 508.034C70.6171 508.036 70.5981 508.037 70.5791 508.037Z" fill="#282828"/>
<path d="M53.0701 381.669C50.1571 381.669 47.7871 379.299 47.7871 376.386C47.7871 373.473 50.1571 371.103 53.0701 371.103C55.9831 371.103 58.3531 373.473 58.3531 376.386C58.3531 379.299 55.9831 381.669 53.0701 381.669ZM53.0701 372.103C50.7081 372.103 48.7871 374.024 48.7871 376.386C48.7871 378.748 50.7081 380.669 53.0701 380.669C55.4321 380.669 57.3531 378.748 57.3531 376.386C57.3531 374.024 55.4321 372.103 53.0701 372.103Z" fill="#282828"/>
<path d="M54.3061 374.061C54.4981 374.318 54.6151 374.634 54.6151 374.98C54.6151 375.833 53.9241 376.525 53.0701 376.525C52.2171 376.525 51.5251 375.833 51.5251 374.98C51.5251 374.634 51.6421 374.319 51.8341 374.061C50.9991 374.506 50.4251 375.374 50.4251 376.386C50.4251 377.847 51.6091 379.031 53.0701 379.031C54.5311 379.031 55.7151 377.847 55.7151 376.386C55.7151 375.375 55.1401 374.506 54.3061 374.061Z" fill="#282828"/>
<path d="M78.7871 24.727V24.555C78.7871 24.134 78.4421 23.789 78.0211 23.789C77.7111 23.789 77.4441 23.978 77.3241 24.245C77.0541 22.033 76.3221 20.482 74.7861 20.482C72.7381 20.482 70.0361 23.243 70.0361 26.649C70.0361 30.055 72.7381 32.816 74.7861 32.816C76.3211 32.816 77.0531 31.264 77.3241 29.053C77.4441 29.32 77.7101 29.509 78.0211 29.509C78.4421 29.509 78.7871 29.165 78.7871 28.743V28.571H81.8181V24.727H78.7871ZM76.2281 26.882C76.2281 26.882 72.8871 26.882 72.0971 26.882C72.0971 27.444 72.1751 30.745 74.8891 31.042C74.8891 31.042 73.4701 31.302 72.3521 30.132C71.2341 28.962 70.6671 26.306 71.6421 24.301C72.6171 22.295 73.8411 21.946 74.5861 21.946C75.3311 21.946 76.4481 23.302 76.2281 26.882ZM77.8331 28.003C77.5431 28.003 77.3081 27.397 77.3081 26.649C77.3081 25.901 77.5431 25.295 77.8331 25.295C78.1231 25.295 78.3581 25.901 78.3581 26.649C78.3581 27.397 78.1231 28.003 77.8331 28.003ZM79.4161 27.687C79.1501 27.687 78.9341 27.222 78.9341 26.648C78.9341 26.074 79.1501 25.609 79.4161 25.609C79.6821 25.609 79.8981 26.074 79.8981 26.648C79.8981 27.222 79.6831 27.687 79.4161 27.687Z" fill="#282828"/>
<path d="M80.2041 42.31V42.138C80.2041 41.717 79.8591 41.372 79.4381 41.372C79.1281 41.372 78.8611 41.561 78.7411 41.828C78.4711 39.616 77.7391 38.065 76.2031 38.065C74.1551 38.065 71.4531 40.826 71.4531 44.232C71.4531 47.638 74.1551 50.399 76.2031 50.399C77.7381 50.399 78.4701 48.848 78.7411 46.636C78.8611 46.903 79.1271 47.092 79.4381 47.092C79.8591 47.092 80.2041 46.747 80.2041 46.326V46.154H83.2351V42.31H80.2041ZM77.6441 44.466C77.6441 44.466 74.3031 44.466 73.5131 44.466C73.5131 45.028 73.5911 48.329 76.3041 48.626C76.3041 48.626 74.8851 48.886 73.7681 47.716C72.6511 46.546 72.0831 43.891 73.0581 41.885C74.0341 39.879 75.2581 39.53 76.0021 39.53C76.7491 39.529 77.8651 40.885 77.6441 44.466ZM79.2501 45.586C78.9601 45.586 78.7251 44.98 78.7251 44.232C78.7251 43.484 78.9601 42.878 79.2501 42.878C79.5401 42.878 79.7751 43.484 79.7751 44.232C79.7751 44.98 79.5401 45.586 79.2501 45.586ZM80.8331 45.271C80.5671 45.271 80.3511 44.806 80.3511 44.232C80.3511 43.658 80.5671 43.193 80.8331 43.193C81.0991 43.193 81.3151 43.658 81.3151 44.232C81.3151 44.806 81.0991 45.271 80.8331 45.271Z" fill="#282828"/>
<path d="M79.2041 60.06V59.888C79.2041 59.467 78.8591 59.122 78.4381 59.122C78.1281 59.122 77.8611 59.311 77.7411 59.578C77.4711 57.366 76.7391 55.815 75.2031 55.815C73.1551 55.815 70.4531 58.576 70.4531 61.982C70.4531 65.388 73.1551 68.149 75.2031 68.149C76.7381 68.149 77.4701 66.598 77.7411 64.386C77.8611 64.653 78.1271 64.842 78.4381 64.842C78.8591 64.842 79.2041 64.497 79.2041 64.076V63.904H82.2351V60.06H79.2041ZM76.6441 62.216C76.6441 62.216 73.3031 62.216 72.5131 62.216C72.5131 62.778 72.5911 66.079 75.3041 66.376C75.3041 66.376 73.8851 66.636 72.7681 65.466C71.6511 64.296 71.0831 61.641 72.0581 59.635C73.0341 57.629 74.2581 57.28 75.0021 57.28C75.7491 57.279 76.8651 58.635 76.6441 62.216ZM78.2501 63.336C77.9601 63.336 77.7251 62.73 77.7251 61.982C77.7251 61.234 77.9601 60.628 78.2501 60.628C78.5401 60.628 78.7751 61.234 78.7751 61.982C78.7751 62.73 78.5401 63.336 78.2501 63.336ZM79.8331 63.021C79.5671 63.021 79.3511 62.556 79.3511 61.982C79.3511 61.408 79.5671 60.943 79.8331 60.943C80.0991 60.943 80.3151 61.408 80.3151 61.982C80.3151 62.556 80.0991 63.021 79.8331 63.021Z" fill="#282828"/>
<path d="M122.204 24.727L121.537 28.571H125.235V28.743C125.235 29.164 125.58 29.509 126.001 29.509C126.311 29.509 126.578 29.32 126.698 29.053C126.968 31.265 127.7 32.816 129.236 32.816C131.284 32.816 133.986 30.055 133.986 26.649C133.986 23.243 131.284 20.482 129.236 20.482C127.701 20.482 126.969 22.033 126.698 24.245C126.578 23.978 126.312 23.789 126.001 23.789C125.58 23.789 125.235 24.133 125.235 24.555V24.727H122.204ZM129.436 21.946C130.181 21.946 131.405 22.296 132.38 24.301C133.356 26.307 132.788 28.962 131.67 30.132C130.553 31.302 129.133 31.042 129.133 31.042C131.847 30.745 131.924 27.445 131.924 26.882C131.135 26.882 127.793 26.882 127.793 26.882C127.574 23.302 128.69 21.946 129.436 21.946ZM125.664 26.649C125.664 25.901 125.899 25.295 126.189 25.295C126.479 25.295 126.714 25.901 126.714 26.649C126.714 27.397 126.479 28.003 126.189 28.003C125.899 28.003 125.664 27.397 125.664 26.649ZM124.124 26.649C124.124 26.075 124.34 25.61 124.606 25.61C124.872 25.61 125.088 26.075 125.088 26.649C125.088 27.223 124.872 27.688 124.606 27.688C124.34 27.687 124.124 27.222 124.124 26.649Z" fill="#282828"/>
<path d="M121.037 42.31V46.154H124.068V46.326C124.068 46.747 124.413 47.092 124.834 47.092C125.144 47.092 125.411 46.903 125.531 46.636C125.801 48.848 126.533 50.399 128.069 50.399C130.117 50.399 132.819 47.638 132.819 44.232C132.819 40.826 130.117 38.065 128.069 38.065C126.534 38.065 125.802 39.617 125.531 41.828C125.411 41.561 125.145 41.372 124.834 41.372C124.413 41.372 124.068 41.716 124.068 42.138V42.31H121.037ZM128.269 39.529C129.014 39.529 130.238 39.879 131.213 41.884C132.189 43.89 131.621 46.545 130.504 47.715C129.386 48.885 127.967 48.625 127.967 48.625C130.681 48.328 130.759 45.028 130.759 44.465C129.97 44.465 126.628 44.465 126.628 44.465C126.408 40.885 127.524 39.529 128.269 39.529ZM124.498 44.232C124.498 43.484 124.733 42.878 125.023 42.878C125.313 42.878 125.548 43.484 125.548 44.232C125.548 44.98 125.313 45.586 125.023 45.586C124.733 45.586 124.498 44.98 124.498 44.232ZM122.957 44.232C122.957 43.658 123.173 43.193 123.439 43.193C123.705 43.193 123.921 43.658 123.921 44.232C123.921 44.806 123.705 45.271 123.439 45.271C123.173 45.271 122.957 44.806 122.957 44.232Z" fill="#282828"/>
<path d="M122.037 60.06V63.904H125.068V64.076C125.068 64.497 125.413 64.842 125.834 64.842C126.144 64.842 126.411 64.653 126.531 64.386C126.801 66.598 127.533 68.149 129.069 68.149C131.117 68.149 133.819 65.388 133.819 61.982C133.819 58.576 131.117 55.815 129.069 55.815C127.534 55.815 126.802 57.367 126.531 59.578C126.411 59.311 126.145 59.122 125.834 59.122C125.413 59.122 125.068 59.467 125.068 59.888V60.06H122.037ZM129.269 57.279C130.014 57.279 131.238 57.629 132.213 59.634C133.189 61.64 132.621 64.295 131.504 65.465C130.386 66.635 128.967 66.375 128.967 66.375C131.681 66.078 131.759 62.778 131.759 62.215C130.97 62.215 127.628 62.215 127.628 62.215C127.408 58.635 128.524 57.279 129.269 57.279ZM125.498 61.982C125.498 61.234 125.733 60.628 126.023 60.628C126.313 60.628 126.548 61.234 126.548 61.982C126.548 62.73 126.313 63.336 126.023 63.336C125.733 63.336 125.498 62.73 125.498 61.982ZM123.957 61.982C123.957 61.408 124.173 60.943 124.439 60.943C124.705 60.943 124.921 61.408 124.921 61.982C124.921 62.556 124.705 63.021 124.439 63.021C124.173 63.021 123.957 62.556 123.957 61.982Z" fill="#282828"/>
<path d="M94.4541 89.274C94.4451 89.274 94.4371 89.274 94.4281 89.274C94.1521 89.26 93.9401 89.025 93.9541 88.749C93.9961 87.936 95.0531 68.781 102.576 63.287C102.761 63.151 103.015 63.159 103.192 63.308C103.495 63.562 110.621 69.756 110.787 88.603C110.79 88.879 110.568 89.105 110.291 89.107H110.287C110.013 89.107 109.79 88.886 109.787 88.611C109.644 72.363 104.159 65.717 102.834 64.349C95.9931 69.908 94.9621 88.607 94.9531 88.799C94.9401 89.066 94.7181 89.274 94.4541 89.274Z" fill="#282828"/>
<path d="M1.87112 511.274C1.59512 511.274 1.37112 511.05 1.37112 510.774C1.37112 478.951 20.5391 455.851 31.9921 442.048C32.9901 440.846 33.9361 439.705 34.8171 438.624C45.4981 425.516 42.2621 414.699 42.2281 414.591C42.1451 414.328 42.2911 414.047 42.5541 413.964C42.8161 413.881 43.0971 414.026 43.1821 414.289C43.3281 414.749 46.6371 425.703 35.5931 439.256C34.7111 440.339 33.7621 441.482 32.7621 442.687C21.3961 456.385 2.3721 479.312 2.3721 510.774C2.3711 511.05 2.14712 511.274 1.87112 511.274Z" fill="#282828"/>
<path d="M199.787 514.357C199.511 514.357 199.287 514.133 199.287 513.857C199.287 496.188 195.02 479.143 187.271 465.859C182.176 457.123 176.218 450.428 170.96 444.521C163.218 435.821 156.532 428.308 156.203 417.957C156.194 417.681 156.411 417.45 156.686 417.441C156.976 417.426 157.193 417.648 157.202 417.924C157.52 427.913 163.781 434.948 171.707 443.855C176.995 449.797 182.989 456.533 188.135 465.355C195.971 478.79 200.286 496.014 200.286 513.857C200.287 514.133 200.064 514.357 199.787 514.357Z" fill="#282828"/>
<path d="M88.2031 26.107C85.6071 26.107 83.4951 24.147 83.4951 21.737C83.4951 20.005 84.4891 18.547 86.1531 17.835C86.4061 17.724 86.7001 17.844 86.8091 18.098C86.9181 18.352 86.8001 18.646 86.5461 18.754C85.2611 19.304 84.4941 20.419 84.4941 21.737C84.4941 23.595 86.1581 25.107 88.2021 25.107C90.2471 25.107 91.9111 23.595 91.9111 21.737C91.9111 20.46 91.1311 19.306 89.8751 18.728C89.6241 18.613 89.5141 18.315 89.6301 18.065C89.7451 17.814 90.0411 17.704 90.2931 17.82C91.9081 18.564 92.9111 20.065 92.9111 21.737C92.9121 24.146 90.8001 26.107 88.2031 26.107Z" fill="#282828"/>
<path d="M88.2031 19.791C87.2441 19.791 86.3661 19.3 85.9131 18.51C85.7121 18.159 85.6051 17.762 85.6051 17.363C85.6051 16.024 86.7701 14.934 88.2031 14.934C89.6361 14.934 90.8011 16.024 90.8011 17.363C90.8011 18.701 89.6361 19.791 88.2031 19.791ZM86.7801 18.012C87.0561 18.493 87.6011 18.791 88.2031 18.791C89.0841 18.791 89.8011 18.15 89.8011 17.362C89.8011 16.574 89.0841 15.933 88.2031 15.933C87.3221 15.933 86.6051 16.574 86.6051 17.362C86.6061 17.59 86.6651 17.809 86.7801 18.012Z" fill="#282828"/>
<path d="M88.1931 23.857C86.7511 23.857 85.5781 22.614 85.5781 21.087V17.582C85.5781 17.306 85.8021 17.082 86.0781 17.082C86.3541 17.082 86.5781 17.306 86.5781 17.582V21.087C86.5781 22.063 87.3031 22.857 88.1931 22.857C89.0831 22.857 89.8081 22.063 89.8081 21.087V17.582C89.8081 17.306 90.0321 17.082 90.3081 17.082C90.5841 17.082 90.8081 17.306 90.8081 17.582V21.087C90.8081 22.614 89.6351 23.857 88.1931 23.857Z" fill="#282828"/>
<path d="M115.453 26.107C112.857 26.107 110.745 24.147 110.745 21.737C110.745 20.005 111.739 18.547 113.403 17.835C113.656 17.724 113.95 17.844 114.059 18.098C114.168 18.352 114.05 18.646 113.796 18.754C112.511 19.304 111.744 20.419 111.744 21.737C111.744 23.595 113.408 25.107 115.452 25.107C117.497 25.107 119.161 23.595 119.161 21.737C119.161 20.46 118.381 19.306 117.125 18.728C116.874 18.613 116.764 18.315 116.88 18.065C116.996 17.814 117.293 17.704 117.543 17.82C119.158 18.564 120.161 20.065 120.161 21.737C120.162 24.146 118.05 26.107 115.453 26.107Z" fill="#282828"/>
<path d="M115.453 19.791C114.494 19.791 113.616 19.3 113.163 18.51C112.962 18.159 112.855 17.762 112.855 17.363C112.855 16.024 114.02 14.934 115.453 14.934C116.886 14.934 118.051 16.024 118.051 17.363C118.051 18.701 116.886 19.791 115.453 19.791ZM114.03 18.012C114.306 18.493 114.851 18.791 115.453 18.791C116.334 18.791 117.051 18.15 117.051 17.362C117.051 16.574 116.334 15.933 115.453 15.933C114.572 15.933 113.855 16.574 113.855 17.362C113.856 17.59 113.915 17.809 114.03 18.012Z" fill="#282828"/>
<path d="M115.443 23.857C114.001 23.857 112.828 22.614 112.828 21.087V17.582C112.828 17.306 113.052 17.082 113.328 17.082C113.604 17.082 113.828 17.306 113.828 17.582V21.087C113.828 22.063 114.553 22.857 115.443 22.857C116.333 22.857 117.058 22.063 117.058 21.087V17.582C117.058 17.306 117.282 17.082 117.558 17.082C117.834 17.082 118.058 17.306 118.058 17.582V21.087C118.058 22.614 116.885 23.857 115.443 23.857Z" fill="#282828"/>
<path d="M114.578 43.857C111.982 43.857 109.87 41.897 109.87 39.487C109.87 37.756 110.864 36.297 112.528 35.585C112.781 35.475 113.075 35.593 113.184 35.848C113.293 36.102 113.175 36.396 112.921 36.504C111.636 37.054 110.869 38.169 110.869 39.487C110.869 41.345 112.533 42.857 114.577 42.857C116.622 42.857 118.286 41.345 118.286 39.487C118.286 38.21 117.506 37.056 116.25 36.478C115.999 36.363 115.889 36.065 116.005 35.815C116.12 35.564 116.417 35.452 116.668 35.57C118.283 36.314 119.286 37.815 119.286 39.487C119.287 41.896 117.175 43.857 114.578 43.857Z" fill="#282828"/>
<path d="M114.578 37.541C113.619 37.541 112.741 37.05 112.288 36.26C112.087 35.909 111.98 35.512 111.98 35.113C111.98 33.774 113.145 32.684 114.578 32.684C116.011 32.684 117.176 33.774 117.176 35.113C117.176 36.451 116.011 37.541 114.578 37.541ZM113.155 35.762C113.431 36.243 113.976 36.541 114.578 36.541C115.459 36.541 116.176 35.9 116.176 35.112C116.176 34.324 115.459 33.683 114.578 33.683C113.697 33.683 112.98 34.324 112.98 35.112C112.981 35.34 113.04 35.559 113.155 35.762Z" fill="#282828"/>
<path d="M114.568 41.607C113.126 41.607 111.953 40.364 111.953 38.837V35.332C111.953 35.056 112.177 34.832 112.453 34.832C112.729 34.832 112.953 35.056 112.953 35.332V38.837C112.953 39.813 113.678 40.607 114.568 40.607C115.458 40.607 116.183 39.813 116.183 38.837V35.332C116.183 35.056 116.407 34.832 116.683 34.832C116.959 34.832 117.183 35.056 117.183 35.332V38.837C117.183 40.364 116.01 41.607 114.568 41.607Z" fill="#282828"/>
<path d="M115.453 61.857C112.857 61.857 110.745 59.897 110.745 57.487C110.745 55.756 111.739 54.297 113.403 53.585C113.656 53.475 113.95 53.593 114.059 53.848C114.168 54.102 114.05 54.396 113.796 54.504C112.511 55.054 111.744 56.169 111.744 57.487C111.744 59.345 113.408 60.857 115.452 60.857C117.497 60.857 119.161 59.345 119.161 57.487C119.161 56.21 118.381 55.056 117.125 54.478C116.874 54.363 116.764 54.065 116.88 53.815C116.996 53.565 117.293 53.453 117.543 53.57C119.158 54.314 120.161 55.815 120.161 57.487C120.162 59.896 118.05 61.857 115.453 61.857Z" fill="#282828"/>
<path d="M115.453 55.541C114.494 55.541 113.616 55.05 113.163 54.26C112.962 53.909 112.855 53.512 112.855 53.113C112.855 51.774 114.02 50.684 115.453 50.684C116.886 50.684 118.051 51.774 118.051 53.113C118.051 54.451 116.886 55.541 115.453 55.541ZM114.03 53.762C114.306 54.243 114.851 54.541 115.453 54.541C116.334 54.541 117.051 53.9 117.051 53.112C117.051 52.324 116.334 51.683 115.453 51.683C114.572 51.683 113.855 52.324 113.855 53.112C113.856 53.34 113.915 53.559 114.03 53.762Z" fill="#282828"/>
<path d="M115.443 59.607C114.001 59.607 112.828 58.364 112.828 56.837V53.332C112.828 53.056 113.052 52.832 113.328 52.832C113.604 52.832 113.828 53.056 113.828 53.332V56.837C113.828 57.813 114.553 58.607 115.443 58.607C116.333 58.607 117.058 57.813 117.058 56.837V53.332C117.058 53.056 117.282 52.832 117.558 52.832C117.834 52.832 118.058 53.056 118.058 53.332V56.837C118.058 58.364 116.885 59.607 115.443 59.607Z" fill="#282828"/>
<path d="M89.4531 44.357C86.8571 44.357 84.7451 42.397 84.7451 39.987C84.7451 38.256 85.7391 36.797 87.4031 36.085C87.6561 35.975 87.9511 36.093 88.0591 36.348C88.1681 36.602 88.0501 36.896 87.7961 37.004C86.5111 37.554 85.7441 38.669 85.7441 39.987C85.7441 41.845 87.4081 43.357 89.4521 43.357C91.4971 43.357 93.1611 41.845 93.1611 39.987C93.1611 38.71 92.3811 37.556 91.1251 36.978C90.8741 36.863 90.7641 36.565 90.8801 36.315C90.9961 36.064 91.2931 35.953 91.5431 36.07C93.1581 36.814 94.1611 38.315 94.1611 39.987C94.1621 42.396 92.0501 44.357 89.4531 44.357Z" fill="#282828"/>
<path d="M89.4531 38.041C88.4941 38.041 87.6161 37.55 87.1631 36.76C86.9621 36.409 86.8551 36.012 86.8551 35.613C86.8551 34.274 88.0201 33.184 89.4531 33.184C90.8861 33.184 92.0511 34.274 92.0511 35.613C92.0511 36.951 90.8861 38.041 89.4531 38.041ZM88.0301 36.262C88.3061 36.743 88.8511 37.041 89.4531 37.041C90.3341 37.041 91.0511 36.4 91.0511 35.612C91.0511 34.824 90.3341 34.183 89.4531 34.183C88.5721 34.183 87.8551 34.824 87.8551 35.612C87.8561 35.84 87.9151 36.059 88.0301 36.262Z" fill="#282828"/>
<path d="M89.4431 42.107C88.0011 42.107 86.8281 40.864 86.8281 39.337V35.832C86.8281 35.556 87.0521 35.332 87.3281 35.332C87.6041 35.332 87.8281 35.556 87.8281 35.832V39.337C87.8281 40.313 88.5531 41.107 89.4431 41.107C90.3331 41.107 91.0581 40.313 91.0581 39.337V35.832C91.0581 35.556 91.2821 35.332 91.5581 35.332C91.8341 35.332 92.0581 35.556 92.0581 35.832V39.337C92.0581 40.864 90.8851 42.107 89.4431 42.107Z" fill="#282828"/>
<path d="M88.8281 62.607C86.2321 62.607 84.1201 60.647 84.1201 58.237C84.1201 56.506 85.1141 55.047 86.7781 54.335C87.0311 54.224 87.3251 54.344 87.4341 54.598C87.5431 54.852 87.4251 55.146 87.1711 55.254C85.8861 55.804 85.1191 56.919 85.1191 58.237C85.1191 60.095 86.7831 61.607 88.8271 61.607C90.8721 61.607 92.5361 60.095 92.5361 58.237C92.5361 56.96 91.7561 55.806 90.5001 55.228C90.2491 55.113 90.1391 54.815 90.2551 54.565C90.3701 54.315 90.6671 54.204 90.9181 54.32C92.5331 55.064 93.5361 56.565 93.5361 58.237C93.5371 60.646 91.4251 62.607 88.8281 62.607Z" fill="#282828"/>
<path d="M88.8281 56.291C87.8691 56.291 86.9911 55.8 86.5381 55.01C86.3371 54.659 86.2301 54.262 86.2301 53.863C86.2301 52.524 87.3951 51.434 88.8281 51.434C90.2611 51.434 91.4261 52.524 91.4261 53.863C91.4261 55.201 90.2611 56.291 88.8281 56.291ZM87.4051 54.512C87.6811 54.993 88.2261 55.291 88.8281 55.291C89.7091 55.291 90.4261 54.65 90.4261 53.862C90.4261 53.074 89.7091 52.433 88.8281 52.433C87.9471 52.433 87.2301 53.074 87.2301 53.862C87.2311 54.09 87.2901 54.309 87.4051 54.512Z" fill="#282828"/>
<path d="M88.8181 60.357C87.3761 60.357 86.2031 59.114 86.2031 57.587V54.082C86.2031 53.806 86.4271 53.582 86.7031 53.582C86.9791 53.582 87.2031 53.806 87.2031 54.082V57.587C87.2031 58.563 87.9281 59.357 88.8181 59.357C89.7081 59.357 90.4331 58.563 90.4331 57.587V54.082C90.4331 53.806 90.6571 53.582 90.9331 53.582C91.2091 53.582 91.4331 53.806 91.4331 54.082V57.587C91.4331 59.114 90.2601 60.357 88.8181 60.357Z" fill="#282828"/>
<path d="M91.3711 89.774C91.0981 89.774 90.8741 89.554 90.8711 89.281L90.5061 61.645C90.5031 61.369 90.7231 61.142 90.9991 61.138C91.0021 61.138 91.0041 61.138 91.0061 61.138C91.2791 61.138 91.5021 61.358 91.5061 61.631L91.8711 89.267C91.8741 89.543 91.6541 89.77 91.3781 89.774C91.3751 89.774 91.3731 89.774 91.3711 89.774Z" fill="#282828"/>
<path d="M114.538 51.774C114.514 51.774 114.489 51.773 114.464 51.769C114.191 51.728 114.002 51.475 114.043 51.201L115.231 43.159C115.271 42.886 115.523 42.693 115.799 42.738C116.072 42.779 116.261 43.032 116.22 43.306L115.032 51.348C114.995 51.595 114.782 51.774 114.538 51.774Z" fill="#282828"/>
<path d="M114.954 33.607C114.917 33.607 114.88 33.603 114.843 33.595C114.574 33.534 114.405 33.266 114.465 32.997L116.174 25.434C116.235 25.165 116.502 24.995 116.772 25.056C117.041 25.117 117.21 25.385 117.149 25.654L115.441 33.217C115.389 33.449 115.183 33.607 114.954 33.607Z" fill="#282828"/>
<path d="M83.9591 502.668C84.7273 502.668 85.3501 502.459 85.3501 502.2C85.3501 501.942 84.7273 501.732 83.9591 501.732C83.1909 501.732 82.5681 501.942 82.5681 502.2C82.5681 502.459 83.1909 502.668 83.9591 502.668Z" fill="#282828"/>
<path d="M90.3341 502.668C91.1023 502.668 91.7251 502.459 91.7251 502.2C91.7251 501.942 91.1023 501.732 90.3341 501.732C89.5659 501.732 88.9431 501.942 88.9431 502.2C88.9431 502.459 89.5659 502.668 90.3341 502.668Z" fill="#282828"/>
<path d="M96.3971 502.668C97.1654 502.668 97.7881 502.459 97.7881 502.2C97.7881 501.942 97.1654 501.732 96.3971 501.732C95.6289 501.732 95.0061 501.942 95.0061 502.2C95.0061 502.459 95.6289 502.668 96.3971 502.668Z" fill="#282828"/>
<path d="M102.897 502.668C103.665 502.668 104.288 502.459 104.288 502.2C104.288 501.942 103.665 501.732 102.897 501.732C102.129 501.732 101.506 501.942 101.506 502.2C101.506 502.459 102.129 502.668 102.897 502.668Z" fill="#282828"/>
<path d="M109.147 502.668C109.915 502.668 110.538 502.459 110.538 502.2C110.538 501.942 109.915 501.732 109.147 501.732C108.379 501.732 107.756 501.942 107.756 502.2C107.756 502.459 108.379 502.668 109.147 502.668Z" fill="#282828"/>
<path d="M115.647 502.668C116.415 502.668 117.038 502.459 117.038 502.2C117.038 501.942 116.415 501.732 115.647 501.732C114.879 501.732 114.256 501.942 114.256 502.2C114.256 502.459 114.879 502.668 115.647 502.668Z" fill="#282828"/>
<path d="M125.162 511.653C123.414 511.653 121.992 510.231 121.992 508.482C121.992 506.734 123.414 505.312 125.162 505.312C126.91 505.312 128.332 506.734 128.332 508.482C128.333 510.23 126.91 511.653 125.162 511.653ZM125.162 506.311C123.965 506.311 122.992 507.285 122.992 508.481C122.992 509.678 123.966 510.652 125.162 510.652C126.359 510.652 127.332 509.678 127.332 508.481C127.333 507.285 126.359 506.311 125.162 506.311Z" fill="#282828"/>
<path d="M127.006 510.878C126.878 510.878 126.75 510.829 126.653 510.732L123.132 507.211C122.937 507.016 122.937 506.699 123.132 506.504C123.327 506.309 123.644 506.309 123.839 506.504L127.36 510.025C127.555 510.22 127.555 510.537 127.36 510.732C127.262 510.829 127.134 510.878 127.006 510.878Z" fill="#282828"/>
<path d="M75.5371 511.653C73.7891 511.653 72.3671 510.231 72.3671 508.482C72.3671 506.734 73.7891 505.312 75.5371 505.312C77.2851 505.312 78.7071 506.734 78.7071 508.482C78.7081 510.23 77.2851 511.653 75.5371 511.653ZM75.5371 506.311C74.3401 506.311 73.3671 507.285 73.3671 508.481C73.3671 509.678 74.3411 510.652 75.5371 510.652C76.7341 510.652 77.7071 509.678 77.7071 508.481C77.7081 507.285 76.7341 506.311 75.5371 506.311Z" fill="#282828"/>
<path d="M77.3811 510.878C77.2531 510.878 77.1251 510.829 77.0281 510.732L73.5071 507.211C73.3121 507.016 73.3121 506.699 73.5071 506.504C73.7021 506.309 74.0191 506.309 74.2141 506.504L77.7351 510.025C77.9301 510.22 77.9301 510.537 77.7351 510.732C77.6371 510.829 77.5091 510.878 77.3811 510.878Z" fill="#282828"/>
<path d="M89.3701 91.024C89.1181 91.024 88.9021 90.835 88.8731 90.579C88.0721 83.292 80.0631 77.066 79.9821 77.004C79.8701 76.918 79.7991 76.787 79.7881 76.646L79.2051 69.063C79.1841 68.788 79.3901 68.547 79.6651 68.526C79.9461 68.5 80.1811 68.71 80.2021 68.986L80.7691 76.35C82.0181 77.35 89.0791 83.295 89.8681 90.47C89.8981 90.744 89.7001 90.991 89.4261 91.022C89.4071 91.023 89.3881 91.024 89.3701 91.024Z" fill="#282828"/>
<path d="M114.913 91.357C114.867 91.357 114.821 91.351 114.775 91.338C114.509 91.262 114.356 90.985 114.431 90.72C117.179 81.101 122.051 76.816 123.063 76.008L123.79 69.469C123.821 69.194 124.073 69.003 124.342 69.027C124.616 69.058 124.814 69.305 124.784 69.579L124.034 76.329C124.018 76.469 123.945 76.595 123.831 76.678C123.776 76.718 118.303 80.808 115.392 90.994C115.33 91.214 115.13 91.357 114.913 91.357Z" fill="#282828"/>
<path d="M152.371 484.252C149.183 484.252 146.59 481.659 146.59 478.471C146.59 475.283 149.183 472.69 152.371 472.69C155.558 472.69 158.152 475.283 158.152 478.471C158.152 481.659 155.558 484.252 152.371 484.252ZM152.371 473.69C149.735 473.69 147.59 475.835 147.59 478.471C147.59 481.107 149.735 483.252 152.371 483.252C155.007 483.252 157.152 481.107 157.152 478.471C157.151 475.835 155.007 473.69 152.371 473.69Z" fill="#282828"/>
<path d="M146.913 478.246C146.761 478.246 146.611 478.177 146.513 478.046C146.375 477.862 146.247 477.67 146.13 477.465C145.359 476.129 145.153 474.571 145.553 473.08C145.953 471.588 146.909 470.342 148.247 469.57C149.584 468.797 151.143 468.592 152.633 468.992C154.125 469.391 155.371 470.348 156.143 471.685C156.722 472.688 156.985 473.827 156.904 474.978C156.885 475.254 156.638 475.462 156.37 475.441C156.095 475.422 155.887 475.183 155.907 474.907C155.974 473.956 155.757 473.014 155.277 472.184C154.639 471.078 153.608 470.287 152.374 469.956C151.14 469.625 149.852 469.794 148.747 470.434C147.641 471.072 146.85 472.103 146.519 473.337C146.188 474.57 146.358 475.859 146.997 476.965C147.094 477.134 147.2 477.294 147.313 477.445C147.479 477.666 147.434 477.979 147.213 478.145C147.123 478.213 147.017 478.246 146.913 478.246Z" fill="#282828"/>
<path d="M152.384 481.82C149.962 481.82 149.197 479.871 149.165 479.788C149.067 479.53 149.198 479.241 149.456 479.143C149.711 479.048 150.001 479.174 150.099 479.431C150.121 479.488 150.667 480.82 152.384 480.82C154.173 480.82 154.669 479.451 154.689 479.393C154.779 479.134 155.061 478.992 155.322 479.081C155.582 479.169 155.723 479.449 155.637 479.709C155.396 480.439 154.406 481.82 152.384 481.82Z" fill="#282828"/>
<path d="M165.371 506.627C162.183 506.627 159.59 504.034 159.59 500.846C159.59 497.658 162.183 495.065 165.371 495.065C168.558 495.065 171.152 497.658 171.152 500.846C171.152 504.034 168.558 506.627 165.371 506.627ZM165.371 496.065C162.735 496.065 160.59 498.209 160.59 500.846C160.59 503.482 162.735 505.627 165.371 505.627C168.007 505.627 170.152 503.483 170.152 500.846C170.151 498.21 168.007 496.065 165.371 496.065Z" fill="#282828"/>
<path d="M159.913 500.62C159.761 500.62 159.611 500.551 159.513 500.42C159.375 500.236 159.247 500.044 159.13 499.839C158.359 498.503 158.153 496.945 158.553 495.454C158.953 493.962 159.909 492.716 161.247 491.944C162.584 491.172 164.141 490.967 165.633 491.366C167.125 491.765 168.371 492.722 169.143 494.059C169.722 495.062 169.985 496.201 169.904 497.352C169.884 497.627 169.636 497.842 169.37 497.815C169.095 497.796 168.887 497.557 168.907 497.281C168.974 496.33 168.757 495.388 168.277 494.558C167.639 493.452 166.607 492.661 165.374 492.331C164.14 491.999 162.852 492.169 161.747 492.809C160.641 493.447 159.85 494.478 159.519 495.712C159.188 496.945 159.358 498.233 159.997 499.34C160.094 499.509 160.2 499.669 160.313 499.82C160.479 500.041 160.434 500.354 160.213 500.52C160.123 500.588 160.017 500.62 159.913 500.62Z" fill="#282828"/>
<path d="M165.384 504.195C162.962 504.195 162.197 502.246 162.165 502.163C162.067 501.905 162.198 501.616 162.456 501.518C162.713 501.422 163.001 501.549 163.099 501.806C163.121 501.863 163.667 503.195 165.384 503.195C167.173 503.195 167.669 501.826 167.689 501.768C167.779 501.508 168.061 501.367 168.322 501.457C168.582 501.545 168.723 501.825 168.637 502.085C168.396 502.814 167.406 504.195 165.384 504.195Z" fill="#282828"/>
<path d="M167.121 534.127C163.933 534.127 161.34 531.534 161.34 528.346C161.34 525.158 163.933 522.565 167.121 522.565C170.309 522.565 172.902 525.158 172.902 528.346C172.902 531.534 170.308 534.127 167.121 534.127ZM167.121 523.565C164.485 523.565 162.34 525.709 162.34 528.346C162.34 530.982 164.485 533.127 167.121 533.127C169.757 533.127 171.902 530.983 171.902 528.346C171.901 525.71 169.757 523.565 167.121 523.565Z" fill="#282828"/>
<path d="M161.663 528.12C161.511 528.12 161.361 528.051 161.263 527.92C161.125 527.736 160.997 527.544 160.88 527.339C160.109 526.003 159.903 524.445 160.303 522.954C160.703 521.462 161.659 520.216 162.997 519.444C164.334 518.672 165.892 518.467 167.383 518.866C168.875 519.265 170.121 520.222 170.893 521.559C171.472 522.562 171.735 523.701 171.654 524.852C171.634 525.128 171.393 525.334 171.12 525.315C170.845 525.296 170.637 525.057 170.657 524.781C170.724 523.83 170.507 522.888 170.027 522.058C169.389 520.952 168.357 520.161 167.124 519.831C165.89 519.5 164.602 519.67 163.497 520.309C162.391 520.947 161.6 521.978 161.269 523.212C160.938 524.445 161.108 525.733 161.747 526.84C161.844 527.009 161.95 527.169 162.063 527.32C162.229 527.541 162.184 527.854 161.963 528.02C161.873 528.088 161.767 528.12 161.663 528.12Z" fill="#282828"/>
<path d="M167.134 531.695C164.712 531.695 163.947 529.746 163.915 529.663C163.817 529.405 163.948 529.116 164.206 529.018C164.462 528.923 164.751 529.049 164.849 529.306C164.871 529.363 165.417 530.695 167.134 530.695C168.923 530.695 169.419 529.326 169.439 529.268C169.529 529.009 169.812 528.866 170.072 528.957C170.332 529.045 170.473 529.325 170.387 529.585C170.146 530.314 169.156 531.695 167.134 531.695Z" fill="#282828"/>
<path d="M77.2961 392.513C77.2961 393.294 76.6631 393.928 75.8811 393.928C75.1001 393.928 74.4661 393.295 74.4661 392.513C74.4661 391.732 75.0991 391.098 75.8811 391.098C76.6621 391.099 77.2961 391.732 77.2961 392.513Z" fill="#282828"/>
<path d="M77.2961 414.701C77.2961 415.482 76.6631 416.116 75.8811 416.116C75.1001 416.116 74.4661 415.483 74.4661 414.701C74.4661 413.92 75.0991 413.286 75.8811 413.286C76.6621 413.286 77.2961 413.919 77.2961 414.701Z" fill="#282828"/>
<path d="M126.233 392.513C126.233 393.294 125.6 393.928 124.818 393.928C124.037 393.928 123.403 393.295 123.403 392.513C123.403 391.732 124.036 391.098 124.818 391.098C125.6 391.099 126.233 391.732 126.233 392.513Z" fill="#282828"/>
<path d="M126.233 414.701C126.233 415.482 125.6 416.116 124.818 416.116C124.037 416.116 123.403 415.483 123.403 414.701C123.403 413.92 124.036 413.286 124.818 413.286C125.6 413.286 126.233 413.919 126.233 414.701Z" fill="#282828"/>
<path d="M77.2961 444.013C77.2961 444.794 76.6631 445.428 75.8811 445.428C75.1001 445.428 74.4661 444.795 74.4661 444.013C74.4661 443.232 75.0991 442.598 75.8811 442.598C76.6621 442.599 77.2961 443.232 77.2961 444.013Z" fill="#282828"/>
<path d="M77.2961 466.201C77.2961 466.982 76.6631 467.616 75.8811 467.616C75.1001 467.616 74.4661 466.983 74.4661 466.201C74.4661 465.42 75.0991 464.786 75.8811 464.786C76.6621 464.786 77.2961 465.419 77.2961 466.201Z" fill="#282828"/>
<path d="M126.233 444.013C126.233 444.794 125.6 445.428 124.818 445.428C124.037 445.428 123.403 444.795 123.403 444.013C123.403 443.232 124.036 442.598 124.818 442.598C125.6 442.599 126.233 443.232 126.233 444.013Z" fill="#282828"/>
<path d="M126.233 466.201C126.233 466.982 125.6 467.616 124.818 467.616C124.037 467.616 123.403 466.983 123.403 466.201C123.403 465.42 124.036 464.786 124.818 464.786C125.6 464.786 126.233 465.419 126.233 466.201Z" fill="#282828"/>
<path d="M122.537 484.355C123.319 484.355 123.952 483.722 123.952 482.94C123.952 482.159 123.319 481.525 122.537 481.525C121.756 481.525 121.122 482.159 121.122 482.94C121.122 483.722 121.756 484.355 122.537 484.355Z" fill="#282828"/>
<path d="M80.4831 485.867C80.4831 486.648 79.8501 487.282 79.0681 487.282C78.2871 487.282 77.6531 486.649 77.6531 485.867C77.6531 485.086 78.2861 484.452 79.0681 484.452C79.8501 484.453 80.4831 485.086 80.4831 485.867Z" fill="#282828"/>
<path d="M104.977 103.357C104.977 104.704 103.885 105.797 102.537 105.797C101.19 105.797 100.097 104.705 100.097 103.357C100.097 102.009 101.189 100.917 102.537 100.917C103.885 100.917 104.977 102.01 104.977 103.357Z" fill="#282828"/>
<path d="M104.894 145.607C104.894 146.954 103.802 148.047 102.454 148.047C101.106 148.047 100.014 146.955 100.014 145.607C100.014 144.259 101.106 143.167 102.454 143.167C103.801 143.167 104.894 144.26 104.894 145.607Z" fill="#282828"/>
<path d="M104.727 183.357C104.727 184.704 103.635 185.797 102.287 185.797C100.94 185.797 99.8471 184.705 99.8471 183.357C99.8471 182.009 100.939 180.917 102.287 180.917C103.635 180.917 104.727 182.01 104.727 183.357Z" fill="#282828"/>
<path d="M104.144 215.774C104.144 217.122 103.052 218.214 101.704 218.214C100.356 218.214 99.2641 217.122 99.2641 215.774C99.2641 214.427 100.356 213.334 101.704 213.334C103.051 213.334 104.144 214.426 104.144 215.774Z" fill="#282828"/>
<path d="M104.144 245.107C104.144 246.454 103.052 247.547 101.704 247.547C100.356 247.547 99.2641 246.455 99.2641 245.107C99.2641 243.759 100.356 242.667 101.704 242.667C103.051 242.667 104.144 243.759 104.144 245.107Z" fill="#282828"/>
<path d="M103.644 282.524C103.644 283.872 102.552 284.964 101.204 284.964C99.8561 284.964 98.7641 283.872 98.7641 282.524C98.7641 281.177 99.8561 280.084 101.204 280.084C102.551 280.084 103.644 281.176 103.644 282.524Z" fill="#282828"/>
<path d="M103.56 314.19C103.56 315.538 102.468 316.63 101.12 316.63C99.7721 316.63 98.6801 315.538 98.6801 314.19C98.6801 312.842 99.7721 311.75 101.12 311.75C102.468 311.75 103.56 312.843 103.56 314.19Z" fill="#282828"/>
<path d="M103.31 332.44C103.31 333.788 102.218 334.88 100.87 334.88C99.5221 334.88 98.4301 333.788 98.4301 332.44C98.4301 331.092 99.5221 330 100.87 330C102.218 330 103.31 331.093 103.31 332.44Z" fill="#282828"/>
<path d="M103.144 348.524C103.144 349.872 102.052 350.964 100.704 350.964C99.3561 350.964 98.2641 349.872 98.2641 348.524C98.2641 347.177 99.3561 346.084 100.704 346.084C102.051 346.084 103.144 347.176 103.144 348.524Z" fill="#282828"/>
<path d="M103.144 363.024C103.144 364.371 102.052 365.464 100.704 365.464C99.3561 365.464 98.2641 364.372 98.2641 363.024C98.2641 361.677 99.3561 360.584 100.704 360.584C102.051 360.584 103.144 361.676 103.144 363.024Z" fill="#282828"/>
</g>
</g>
</svg>
