<svg width="82" height="82" viewBox="0 0 82 82" fill="none" xmlns="http://www.w3.org/2000/svg">
<g id="icon-check 1">
<path id="Vector" d="M54.7695 34.2699C55.7703 33.2693 55.7703 31.6467 54.7695 30.646C53.7688 29.6453 52.1466 29.6453 51.1458 30.646L35.8743 45.9173L30.853 40.8961C29.8523 39.8954 28.2298 39.8954 27.229 40.8961C26.2283 41.8969 26.2283 43.5191 27.229 44.5199L34.0624 51.3532C35.0632 52.3539 36.6855 52.3539 37.6862 51.3532L54.7695 34.2699Z" fill="#ffffff"/>
<path id="Vector_2" fill-rule="evenodd" clip-rule="evenodd" d="M41.0006 4.27051C20.7157 4.27051 4.27148 20.7147 4.27148 40.9997C4.27148 61.2848 20.7157 77.7288 41.0006 77.7288C61.2857 77.7288 77.7298 61.2848 77.7298 40.9997C77.7298 20.7147 61.2857 4.27051 41.0006 4.27051ZM9.39648 40.9997C9.39648 23.5452 23.5462 9.39551 41.0006 9.39551C58.455 9.39551 72.6048 23.5452 72.6048 40.9997C72.6048 58.4541 58.455 72.6038 41.0006 72.6038C23.5462 72.6038 9.39648 58.4541 9.39648 40.9997Z" fill="#ffffff"/>
</g>
</svg>
