<svg width="73" height="99" viewBox="0 0 73 99" fill="none" xmlns="http://www.w3.org/2000/svg">
<path id="S" d="M72.375 12.625C72.375 13.1667 72.3125 13.8333 72.1875 14.625C72.0625 15.4167 71.875 16.2292 71.625 17.0625C71.4167 17.8542 71.1458 18.625 70.8125 19.375C70.5208 20.0833 70.1875 20.6458 69.8125 21.0625C68.8125 22.2708 67.0208 22.875 64.4375 22.875C64.4375 20.0417 64.0417 17.6875 63.25 15.8125C62.875 14.9375 62.1875 14.2083 61.1875 13.625C60.2292 13 59.1458 12.4792 57.9375 12.0625C56.7292 11.6458 55.5 11.3542 54.25 11.1875C53.0417 10.9792 52 10.875 51.125 10.875C49.125 10.875 47.1875 10.9167 45.3125 11C43.4792 11.0833 41.6667 11.2708 39.875 11.5625C38.125 11.8125 36.3333 12.1875 34.5 12.6875C32.7083 13.1458 30.8333 13.7708 28.875 14.5625C27.375 15.1875 25.8125 15.9375 24.1875 16.8125C22.5625 17.6458 21.0625 18.6042 19.6875 19.6875C18.3125 20.7708 17.125 21.9583 16.125 23.25C15.125 24.5417 14.5 25.9583 14.25 27.5C14.1667 28.6667 14.5208 30 15.3125 31.5C16.1042 33 17.1667 34.4583 18.5 35.875C19.875 37.2917 21.4375 38.5833 23.1875 39.75C24.9792 40.9167 26.8333 41.7708 28.75 42.3125C29.0833 42.4375 29.8542 42.7083 31.0625 43.125C32.2708 43.5417 33.5625 43.9792 34.9375 44.4375C36.3542 44.8958 37.6458 45.3333 38.8125 45.75C40.0208 46.125 40.7917 46.3542 41.125 46.4375C50.5417 48.8542 57.5208 51.7292 62.0625 55.0625C66.6458 58.3542 68.9375 62.3958 68.9375 67.1875C68.9375 68.7292 68.5833 70.2708 67.875 71.8125C67.2083 73.3125 66.3542 74.7708 65.3125 76.1875C64.2708 77.5625 63.1458 78.8333 61.9375 80C60.7292 81.1667 59.6042 82.1458 58.5625 82.9375C57.3542 83.8958 55.9792 84.8958 54.4375 85.9375C52.8958 86.9375 51.25 87.9167 49.5 88.875C47.75 89.8333 45.9375 90.7292 44.0625 91.5625C42.1875 92.3958 40.2917 93.125 38.375 93.75C36.5 94.375 34.5208 94.9375 32.4375 95.4375C30.3958 95.9792 28.3542 96.4375 26.3125 96.8125C24.3125 97.1875 22.375 97.4792 20.5 97.6875C18.6667 97.9375 17.0208 98.0625 15.5625 98.0625C14.4792 98.0625 13.0625 97.8958 11.3125 97.5625C9.60417 97.2708 7.91667 96.8333 6.25 96.25C4.58333 95.7083 3.14583 95.0417 1.9375 94.25C0.770833 93.5 0.1875 92.6875 0.1875 91.8125C0.1875 91.2708 0.25 90.6042 0.375 89.8125C0.541667 89.0208 0.75 88.25 1 87.5C1.29167 86.75 1.60417 86.125 1.9375 85.625C2.3125 85.0833 2.72917 84.8125 3.1875 84.8125C4.02083 84.8125 4.875 84.9583 5.75 85.25C6.66667 85.5 7.72917 85.7917 8.9375 86.125C10.1875 86.4583 11.6458 86.7708 13.3125 87.0625C15.0208 87.3125 17.0833 87.4375 19.5 87.4375C22 87.4375 24.5833 87.1875 27.25 86.6875C29.9583 86.1458 32.6042 85.4375 35.1875 84.5625C37.7708 83.6875 40.2292 82.6875 42.5625 81.5625C44.9375 80.4375 47.0625 79.2708 48.9375 78.0625C49.8125 77.4792 50.7708 76.8125 51.8125 76.0625C52.8958 75.2708 53.8958 74.4167 54.8125 73.5C55.7292 72.5833 56.5 71.6042 57.125 70.5625C57.75 69.5208 58.0625 68.4375 58.0625 67.3125C58.0625 65.7292 56.8958 64.2083 54.5625 62.75C52.2708 61.3333 49.9167 60.2292 47.5 59.4375C45.125 58.6458 43 58.0208 41.125 57.5625C38.8333 56.9792 36.25 56.2083 33.375 55.25C30.5417 54.2917 27.4167 53.1458 24 51.8125C18.3333 49.6458 13.5417 46.4792 9.625 42.3125C5.70833 38.1458 3.75 33.125 3.75 27.25C3.66667 24.5 4.5 21.8542 6.25 19.3125C8.04167 16.7708 10.4375 14.4167 13.4375 12.25C16.4375 10.0833 19.8542 8.16667 23.6875 6.5C27.5625 4.79167 31.5417 3.45833 35.625 2.5C36.4583 2.33333 37.4583 2.14583 38.625 1.9375C39.8333 1.72917 41.0625 1.5625 42.3125 1.4375C43.6042 1.27083 44.8333 1.14583 46 1.0625C47.2083 0.9375 48.2292 0.875 49.0625 0.875C50.0625 0.875 51.3125 0.958333 52.8125 1.125C54.3542 1.25 55.9167 1.4375 57.5 1.6875C59.125 1.9375 60.6458 2.25 62.0625 2.625C63.5208 3 64.6875 3.4375 65.5625 3.9375C67.6875 5.0625 69.3542 6.41667 70.5625 8C71.7708 9.58333 72.375 11.125 72.375 12.625Z" fill="url(#paint0_linear_657_80)"/>
<defs>
<linearGradient id="paint0_linear_657_80" x1="61.1592" y1="-36.5" x2="-93.2796" y2="25.5684" gradientUnits="userSpaceOnUse">
<stop stop-color="#EB1B1B"/>
<stop offset="1" stop-color="#761010"/>
</linearGradient>
</defs>
</svg>
