<svg width="584" height="104" viewBox="0 0 584 104" fill="none" xmlns="http://www.w3.org/2000/svg">
<path id="Sonicore" d="M72.375 17.625C72.375 18.1667 72.3125 18.8333 72.1875 19.625C72.0625 20.4167 71.875 21.2292 71.625 22.0625C71.4167 22.8542 71.1458 23.625 70.8125 24.375C70.5208 25.0833 70.1875 25.6458 69.8125 26.0625C68.8125 27.2708 67.0208 27.875 64.4375 27.875C64.4375 25.0417 64.0417 22.6875 63.25 20.8125C62.875 19.9375 62.1875 19.2083 61.1875 18.625C60.2292 18 59.1458 17.4792 57.9375 17.0625C56.7292 16.6458 55.5 16.3542 54.25 16.1875C53.0417 15.9792 52 15.875 51.125 15.875C49.125 15.875 47.1875 15.9167 45.3125 16C43.4792 16.0833 41.6667 16.2708 39.875 16.5625C38.125 16.8125 36.3333 17.1875 34.5 17.6875C32.7083 18.1458 30.8333 18.7708 28.875 19.5625C27.375 20.1875 25.8125 20.9375 24.1875 21.8125C22.5625 22.6458 21.0625 23.6042 19.6875 24.6875C18.3125 25.7708 17.125 26.9583 16.125 28.25C15.125 29.5417 14.5 30.9583 14.25 32.5C14.1667 33.6667 14.5208 35 15.3125 36.5C16.1042 38 17.1667 39.4583 18.5 40.875C19.875 42.2917 21.4375 43.5833 23.1875 44.75C24.9792 45.9167 26.8333 46.7708 28.75 47.3125C29.0833 47.4375 29.8542 47.7083 31.0625 48.125C32.2708 48.5417 33.5625 48.9792 34.9375 49.4375C36.3542 49.8958 37.6458 50.3333 38.8125 50.75C40.0208 51.125 40.7917 51.3542 41.125 51.4375C50.5417 53.8542 57.5208 56.7292 62.0625 60.0625C66.6458 63.3542 68.9375 67.3958 68.9375 72.1875C68.9375 73.7292 68.5833 75.2708 67.875 76.8125C67.2083 78.3125 66.3542 79.7708 65.3125 81.1875C64.2708 82.5625 63.1458 83.8333 61.9375 85C60.7292 86.1667 59.6042 87.1458 58.5625 87.9375C57.3542 88.8958 55.9792 89.8958 54.4375 90.9375C52.8958 91.9375 51.25 92.9167 49.5 93.875C47.75 94.8333 45.9375 95.7292 44.0625 96.5625C42.1875 97.3958 40.2917 98.125 38.375 98.75C36.5 99.375 34.5208 99.9375 32.4375 100.438C30.3958 100.979 28.3542 101.438 26.3125 101.812C24.3125 102.188 22.375 102.479 20.5 102.688C18.6667 102.938 17.0208 103.062 15.5625 103.062C14.4792 103.062 13.0625 102.896 11.3125 102.562C9.60417 102.271 7.91667 101.833 6.25 101.25C4.58333 100.708 3.14583 100.042 1.9375 99.25C0.770833 98.5 0.1875 97.6875 0.1875 96.8125C0.1875 96.2708 0.25 95.6042 0.375 94.8125C0.541667 94.0208 0.75 93.25 1 92.5C1.29167 91.75 1.60417 91.125 1.9375 90.625C2.3125 90.0833 2.72917 89.8125 3.1875 89.8125C4.02083 89.8125 4.875 89.9583 5.75 90.25C6.66667 90.5 7.72917 90.7917 8.9375 91.125C10.1875 91.4583 11.6458 91.7708 13.3125 92.0625C15.0208 92.3125 17.0833 92.4375 19.5 92.4375C22 92.4375 24.5833 92.1875 27.25 91.6875C29.9583 91.1458 32.6042 90.4375 35.1875 89.5625C37.7708 88.6875 40.2292 87.6875 42.5625 86.5625C44.9375 85.4375 47.0625 84.2708 48.9375 83.0625C49.8125 82.4792 50.7708 81.8125 51.8125 81.0625C52.8958 80.2708 53.8958 79.4167 54.8125 78.5C55.7292 77.5833 56.5 76.6042 57.125 75.5625C57.75 74.5208 58.0625 73.4375 58.0625 72.3125C58.0625 70.7292 56.8958 69.2083 54.5625 67.75C52.2708 66.3333 49.9167 65.2292 47.5 64.4375C45.125 63.6458 43 63.0208 41.125 62.5625C38.8333 61.9792 36.25 61.2083 33.375 60.25C30.5417 59.2917 27.4167 58.1458 24 56.8125C18.3333 54.6458 13.5417 51.4792 9.625 47.3125C5.70833 43.1458 3.75 38.125 3.75 32.25C3.66667 29.5 4.5 26.8542 6.25 24.3125C8.04167 21.7708 10.4375 19.4167 13.4375 17.25C16.4375 15.0833 19.8542 13.1667 23.6875 11.5C27.5625 9.79167 31.5417 8.45833 35.625 7.5C36.4583 7.33333 37.4583 7.14583 38.625 6.9375C39.8333 6.72917 41.0625 6.5625 42.3125 6.4375C43.6042 6.27083 44.8333 6.14583 46 6.0625C47.2083 5.9375 48.2292 5.875 49.0625 5.875C50.0625 5.875 51.3125 5.95833 52.8125 6.125C54.3542 6.25 55.9167 6.4375 57.5 6.6875C59.125 6.9375 60.6458 7.25 62.0625 7.625C63.5208 8 64.6875 8.4375 65.5625 8.9375C67.6875 10.0625 69.3542 11.4167 70.5625 13C71.7708 14.5833 72.375 16.125 72.375 17.625ZM172.75 41.875C172.75 42.5833 172.5 43.3542 172 44.1875C171.5 45.0208 170.854 45.875 170.062 46.75C169.271 47.5833 168.375 48.4167 167.375 49.25C166.375 50.0417 165.375 50.7917 164.375 51.5C163.375 52.1667 162.417 52.7708 161.5 53.3125C160.625 53.8125 159.896 54.1875 159.312 54.4375C158.229 54.8958 156.792 55.3125 155 55.6875C153.25 56.0208 151.417 56.3125 149.5 56.5625C147.583 56.8125 145.708 57.0208 143.875 57.1875C142.042 57.3125 140.5 57.375 139.25 57.375C138.75 57.375 138.062 57.2917 137.188 57.125C136.312 56.9583 135.417 56.75 134.5 56.5C133.583 56.25 132.708 55.9792 131.875 55.6875C131.083 55.3542 130.5 55.0208 130.125 54.6875C130.5 56.2708 130.833 57.875 131.125 59.5C131.417 61.0833 131.562 62.7292 131.562 64.4375C131.562 65.1875 131.458 66.1042 131.25 67.1875C131.083 68.2708 130.833 69.375 130.5 70.5C130.208 71.5833 129.875 72.6458 129.5 73.6875C129.125 74.6875 128.729 75.5208 128.312 76.1875C127.229 78.0208 126.104 79.6875 124.938 81.1875C123.812 82.6875 122.521 84.0833 121.062 85.375C119.646 86.625 118.042 87.8125 116.25 88.9375C114.458 90.0625 112.396 91.1458 110.062 92.1875C107.562 93.2708 105.042 94.0417 102.5 94.5C100 94.9167 97.3958 95.125 94.6875 95.125C92.9792 95.125 91.4583 94.625 90.125 93.625C88.7917 92.625 87.6667 91.2917 86.75 89.625C85.8333 87.9167 85.125 85.9583 84.625 83.75C84.1667 81.5417 83.9375 79.2292 83.9375 76.8125C83.9375 76.1875 83.9792 75.4167 84.0625 74.5C84.1875 73.5833 84.3333 72.6458 84.5 71.6875C84.7083 70.7292 84.9167 69.8125 85.125 68.9375C85.3333 68.0625 85.5417 67.3125 85.75 66.6875C86.3333 64.9375 87.1667 62.9375 88.25 60.6875C89.3333 58.4375 90.6042 56.1458 92.0625 53.8125C93.5208 51.4375 95.1458 49.125 96.9375 46.875C98.7292 44.5833 100.604 42.5417 102.562 40.75C104.521 38.9583 106.562 37.5208 108.688 36.4375C110.812 35.3542 112.938 34.8125 115.062 34.8125C115.771 34.8125 116.333 34.9167 116.75 35.125C117.208 35.3333 117.583 35.6042 117.875 35.9375C118.208 36.2708 118.5 36.625 118.75 37C119 37.375 119.292 37.75 119.625 38.125C119.75 38.3333 119.938 38.4375 120.188 38.4375C120.521 38.4375 120.938 38.3542 121.438 38.1875C121.938 38.0208 122.5 37.9375 123.125 37.9375C123.917 37.9375 124.896 38.4583 126.062 39.5C127.229 40.5 128.438 41.625 129.688 42.875C130.979 44.0833 132.25 45.2083 133.5 46.25C134.792 47.25 135.938 47.75 136.938 47.75C138.062 47.75 139.271 47.7292 140.562 47.6875C141.854 47.6458 143.167 47.5833 144.5 47.5C145.833 47.375 147.146 47.2292 148.438 47.0625C149.729 46.8958 150.917 46.7083 152 46.5C152.292 46.4167 152.979 46.2292 154.062 45.9375C155.146 45.6458 156.396 45.3125 157.812 44.9375C159.271 44.5208 160.792 44.0833 162.375 43.625C164 43.1667 165.5 42.75 166.875 42.375C168.25 41.9583 169.375 41.625 170.25 41.375C171.167 41.125 171.667 41 171.75 41C172 41 172.229 41.0625 172.438 41.1875C172.646 41.3125 172.75 41.5417 172.75 41.875ZM124 51.875C123.75 51.0417 123.25 50.2292 122.5 49.4375C121.792 48.6458 120.958 47.9375 120 47.3125C119.083 46.6875 118.104 46.1875 117.062 45.8125C116.021 45.3958 115.042 45.1875 114.125 45.1875C113.375 45.1875 112.646 45.3125 111.938 45.5625C111.229 45.8125 110.521 46.1458 109.812 46.5625C109.146 46.9375 108.5 47.375 107.875 47.875C107.25 48.3333 106.667 48.7708 106.125 49.1875C104.5 50.5625 102.938 52.5 101.438 55C99.9792 57.4583 98.6875 60.125 97.5625 63C96.4792 65.8333 95.6042 68.6667 94.9375 71.5C94.2708 74.3333 93.9375 76.7917 93.9375 78.875C93.9375 79.7917 94.0833 80.6875 94.375 81.5625C94.7083 82.3958 95.1667 83.1458 95.75 83.8125C96.3333 84.4375 97.0208 84.9583 97.8125 85.375C98.6042 85.75 99.4792 85.9375 100.438 85.9375C102.938 85.9375 105.25 85.5 107.375 84.625C109.5 83.7083 111.417 82.4792 113.125 80.9375C114.875 79.3542 116.417 77.4792 117.75 75.3125C119.083 73.1458 120.208 70.8125 121.125 68.3125C122.042 65.7708 122.729 63.1042 123.188 60.3125C123.688 57.5208 123.958 54.7083 124 51.875ZM270.5 49.5C270.5 51.0833 270.146 52.6875 269.438 54.3125C268.729 55.9375 267.917 57.4583 267 58.875C265.833 60.625 264.438 62.6042 262.812 64.8125C261.188 66.9792 259.375 69.1875 257.375 71.4375C255.417 73.6875 253.292 75.8958 251 78.0625C248.75 80.1875 246.396 82.0833 243.938 83.75C241.521 85.4167 239.042 86.7708 236.5 87.8125C233.958 88.8125 231.438 89.3125 228.938 89.3125C226.229 89.3125 224 88.75 222.25 87.625C220.542 86.5 219.125 85.0208 218 83.1875C216.917 81.3542 216.062 79.2708 215.438 76.9375C214.854 74.5625 214.312 72.1458 213.812 69.6875C213.229 66.6875 212.646 64.1458 212.062 62.0625C211.521 59.9792 210.938 58.2917 210.312 57C209.729 55.6667 209.104 54.7083 208.438 54.125C207.771 53.5417 207.062 53.25 206.312 53.25C204.854 53.25 203.333 53.8958 201.75 55.1875C200.167 56.4792 198.5 58.2292 196.75 60.4375C195 62.6042 193.146 65.1042 191.188 67.9375C189.271 70.7708 187.25 73.7083 185.125 76.75C183.833 78.5833 182.5 80.3542 181.125 82.0625C179.75 83.7708 178.396 85.3333 177.062 86.75C175.771 88.1667 174.542 89.3958 173.375 90.4375C172.208 91.4375 171.188 92.1667 170.312 92.625C169.396 92.4167 168.583 92.1458 167.875 91.8125C167.167 91.4375 166.583 90.875 166.125 90.125C165.667 89.3333 165.312 88.2917 165.062 87C164.812 85.7083 164.688 84.0208 164.688 81.9375C164.688 80.3542 164.771 78.3958 164.938 76.0625C165.146 73.7292 165.396 71.3125 165.688 68.8125C166.021 66.2708 166.354 63.8125 166.688 61.4375C167.062 59.0208 167.438 56.9583 167.812 55.25C168.062 54.125 168.25 53 168.375 51.875C168.542 50.75 168.688 49.7083 168.812 48.75C168.979 47.75 169.125 46.875 169.25 46.125C169.417 45.3333 169.625 44.6875 169.875 44.1875C170.708 42.4792 171.542 41.1042 172.375 40.0625C173.208 38.9792 174.167 38.4375 175.25 38.4375C175.583 38.4375 176.021 38.4792 176.562 38.5625C177.146 38.6458 177.688 38.8333 178.188 39.125C178.729 39.375 179.188 39.75 179.562 40.25C179.979 40.75 180.188 41.3958 180.188 42.1875C180.188 44.1875 179.854 46.5 179.188 49.125C178.521 51.75 177.854 54.4375 177.188 57.1875C176.938 58.3125 176.625 59.6042 176.25 61.0625C175.875 62.4792 175.521 63.9375 175.188 65.4375C174.896 66.9375 174.625 68.4167 174.375 69.875C174.167 71.2917 174.062 72.5417 174.062 73.625C174.062 73.7917 174.042 74.0625 174 74.4375C174 74.8125 173.979 75.2083 173.938 75.625C173.938 76.0417 173.938 76.4375 173.938 76.8125C173.938 77.1875 173.979 77.4792 174.062 77.6875C175.438 76.7292 176.896 75.2292 178.438 73.1875C179.979 71.1458 181.521 68.9375 183.062 66.5625C184.646 64.1458 186.188 61.75 187.688 59.375C189.188 56.9583 190.604 54.9167 191.938 53.25C193.312 51.4583 194.604 49.875 195.812 48.5C197.021 47.125 198.271 45.9792 199.562 45.0625C200.854 44.1042 202.229 43.3958 203.688 42.9375C205.188 42.4375 206.917 42.1875 208.875 42.1875C211.042 42.1875 212.833 42.75 214.25 43.875C215.708 44.9583 216.896 46.3958 217.812 48.1875C218.771 49.9792 219.521 52.0417 220.062 54.375C220.604 56.7083 221.062 59.0833 221.438 61.5C221.854 64.0833 222.292 66.4583 222.75 68.625C223.208 70.75 223.812 72.5833 224.562 74.125C225.354 75.625 226.333 76.8125 227.5 77.6875C228.667 78.5208 230.167 78.9375 232 78.9375C234.5 78.9375 236.938 78.25 239.312 76.875C241.729 75.5 244.375 73.5 247.25 70.875C252.042 66.5417 256.125 62.4167 259.5 58.5C262.917 54.5833 266.042 51.0417 268.875 47.875C269 48.0833 269.292 48.2708 269.75 48.4375C270.25 48.6042 270.5 48.9583 270.5 49.5ZM287.125 5.5C287.125 8.20833 286.417 10.5208 285 12.4375C283.625 14.3542 281.604 15.3125 278.938 15.3125C277.271 15.3125 275.417 15.0625 273.375 14.5625C271.375 14.0625 270.375 13.25 270.375 12.125C270.375 10.0833 271 8.14583 272.25 6.3125C273.542 4.4375 275.083 2.91667 276.875 1.75C278.292 0.916667 279.229 0.5 279.688 0.5C282.062 0.5 283.896 0.833333 285.188 1.5C286.479 2.125 287.125 3.45833 287.125 5.5ZM328.062 56.3125C328.104 57.1875 327.708 58.375 326.875 59.875C326.083 61.375 324.979 63.0833 323.562 65C322.188 66.875 320.562 68.8958 318.688 71.0625C316.854 73.2292 314.917 75.3958 312.875 77.5625C310.542 80.0625 308.062 82.4792 305.438 84.8125C302.854 87.1042 300.083 89.3333 297.125 91.5C291.292 95.8333 286.083 98 281.5 98C276.458 98 272.542 96.3125 269.75 92.9375C266.958 89.5208 265.062 85.3958 264.062 80.5625C263.062 75.7708 262.562 70.8333 262.562 65.75C262.562 63.625 262.812 60.3125 263.312 55.8125C263.562 53.5625 263.812 51.625 264.062 50C264.312 48.375 264.583 47.0625 264.875 46.0625C265.458 44.1042 266.688 42.3958 268.562 40.9375C270.479 39.3958 272.479 38.625 274.562 38.625C275.688 38.625 276.25 39.6875 276.25 41.8125C276.25 43.2292 276.104 44.8333 275.812 46.625C275.562 48.4167 275.292 50.1875 275 51.9375C274.458 55.2292 274.062 58.1875 273.812 60.8125C273.562 63.3958 273.438 65.6458 273.438 67.5625C273.438 71.7708 274.021 76.0208 275.188 80.3125C276.354 84.6875 278.458 86.875 281.5 86.875C284.583 86.875 288.167 85.75 292.25 83.5C294.292 82.3333 296.333 81.0417 298.375 79.625C300.417 78.2083 302.458 76.625 304.5 74.875C306.583 73.125 308.583 71.375 310.5 69.625C312.417 67.8333 314.292 66 316.125 64.125C317.958 62.25 319.604 60.5 321.062 58.875C322.521 57.25 323.792 55.75 324.875 54.375C324.917 54.2917 324.979 54.1667 325.062 54C325.188 53.7917 325.312 53.6042 325.438 53.4375C325.562 53.2292 325.688 53.0625 325.812 52.9375C325.938 52.8125 326.062 52.7708 326.188 52.8125C326.771 52.8125 327.208 53.2708 327.5 54.1875C327.875 55.0625 328.062 55.7708 328.062 56.3125ZM397.812 54C397.812 55.5 397.271 56.8542 396.188 58.0625C395.812 58.4792 395.229 59.0417 394.438 59.75C393.646 60.4167 392.938 61.0625 392.312 61.6875L386.562 67.4375C385.479 68.5208 384.458 69.5 383.5 70.375C382.583 71.2083 381.771 71.9375 381.062 72.5625C379.854 73.5625 378.396 74.7708 376.688 76.1875C375.021 77.5625 373.083 79.1667 370.875 81C366.542 84.5833 362.542 87.5208 358.875 89.8125C355.208 92.0625 351.271 93.875 347.062 95.25C342.896 96.5833 338.479 97.25 333.812 97.25C330.938 97.3333 328.354 96.8333 326.062 95.75C323.812 94.6667 321.896 93.2083 320.312 91.375C318.771 89.5 317.583 87.3125 316.75 84.8125C315.958 82.3125 315.583 79.6667 315.625 76.875C315.625 71.3333 316.792 65.7917 319.125 60.25C321.5 54.7083 324.646 49.25 328.562 43.875C330.688 41.0417 333.25 38.3333 336.25 35.75C339.208 33.1667 341.896 31.875 344.312 31.875C345.604 31.875 347.083 32.9583 348.75 35.125C349.583 36.2083 350.375 37.375 351.125 38.625C351.875 39.8333 352.562 41.125 353.188 42.5C354.438 45.2083 355.062 47.1667 355.062 48.375C355.062 49.5833 354.688 51.1458 353.938 53.0625C353.188 54.9792 352.292 55.9375 351.25 55.9375C349.75 55.9375 348.5 54.9167 347.5 52.875C347 51.8333 346.625 50.9583 346.375 50.25C346.167 49.5 345.917 48.7083 345.625 47.875C344.667 45.375 343.854 43.5833 343.188 42.5C340.438 43 338.146 44.3542 336.312 46.5625C335.438 47.6458 334.521 48.9583 333.562 50.5C332.646 52 331.667 53.7083 330.625 55.625C329.792 57.125 329.021 58.8125 328.312 60.6875C327.604 62.5625 327 64.5 326.5 66.5C326 68.4583 325.604 70.4375 325.312 72.4375C325.021 74.3958 324.875 76.2292 324.875 77.9375C324.875 80.3542 325.917 82.7083 328 85C330.125 87.2083 332.417 88.3125 334.875 88.3125C340.208 88.3125 345.271 87.375 350.062 85.5C354.854 83.625 359.458 81.125 363.875 78C368.25 74.9583 372.688 71.3958 377.188 67.3125C379.438 65.2708 381.562 63.3542 383.562 61.5625C385.604 59.7292 387.542 57.9792 389.375 56.3125C392.417 53.6458 394.938 52.3125 396.938 52.3125C397.521 52.3125 397.812 52.875 397.812 54ZM472.875 41.875C472.875 42.5833 472.625 43.3542 472.125 44.1875C471.625 45.0208 470.979 45.875 470.188 46.75C469.396 47.5833 468.5 48.4167 467.5 49.25C466.5 50.0417 465.5 50.7917 464.5 51.5C463.5 52.1667 462.542 52.7708 461.625 53.3125C460.75 53.8125 460.021 54.1875 459.438 54.4375C458.354 54.8958 456.917 55.3125 455.125 55.6875C453.375 56.0208 451.542 56.3125 449.625 56.5625C447.708 56.8125 445.833 57.0208 444 57.1875C442.167 57.3125 440.625 57.375 439.375 57.375C438.875 57.375 438.188 57.2917 437.312 57.125C436.438 56.9583 435.542 56.75 434.625 56.5C433.708 56.25 432.833 55.9792 432 55.6875C431.208 55.3542 430.625 55.0208 430.25 54.6875C430.625 56.2708 430.958 57.875 431.25 59.5C431.542 61.0833 431.688 62.7292 431.688 64.4375C431.688 65.1875 431.583 66.1042 431.375 67.1875C431.208 68.2708 430.958 69.375 430.625 70.5C430.333 71.5833 430 72.6458 429.625 73.6875C429.25 74.6875 428.854 75.5208 428.438 76.1875C427.354 78.0208 426.229 79.6875 425.062 81.1875C423.938 82.6875 422.646 84.0833 421.188 85.375C419.771 86.625 418.167 87.8125 416.375 88.9375C414.583 90.0625 412.521 91.1458 410.188 92.1875C407.688 93.2708 405.167 94.0417 402.625 94.5C400.125 94.9167 397.521 95.125 394.812 95.125C393.104 95.125 391.583 94.625 390.25 93.625C388.917 92.625 387.792 91.2917 386.875 89.625C385.958 87.9167 385.25 85.9583 384.75 83.75C384.292 81.5417 384.062 79.2292 384.062 76.8125C384.062 76.1875 384.104 75.4167 384.188 74.5C384.312 73.5833 384.458 72.6458 384.625 71.6875C384.833 70.7292 385.042 69.8125 385.25 68.9375C385.458 68.0625 385.667 67.3125 385.875 66.6875C386.458 64.9375 387.292 62.9375 388.375 60.6875C389.458 58.4375 390.729 56.1458 392.188 53.8125C393.646 51.4375 395.271 49.125 397.062 46.875C398.854 44.5833 400.729 42.5417 402.688 40.75C404.646 38.9583 406.688 37.5208 408.812 36.4375C410.938 35.3542 413.062 34.8125 415.188 34.8125C415.896 34.8125 416.458 34.9167 416.875 35.125C417.333 35.3333 417.708 35.6042 418 35.9375C418.333 36.2708 418.625 36.625 418.875 37C419.125 37.375 419.417 37.75 419.75 38.125C419.875 38.3333 420.062 38.4375 420.312 38.4375C420.646 38.4375 421.062 38.3542 421.562 38.1875C422.062 38.0208 422.625 37.9375 423.25 37.9375C424.042 37.9375 425.021 38.4583 426.188 39.5C427.354 40.5 428.562 41.625 429.812 42.875C431.104 44.0833 432.375 45.2083 433.625 46.25C434.917 47.25 436.062 47.75 437.062 47.75C438.188 47.75 439.396 47.7292 440.688 47.6875C441.979 47.6458 443.292 47.5833 444.625 47.5C445.958 47.375 447.271 47.2292 448.562 47.0625C449.854 46.8958 451.042 46.7083 452.125 46.5C452.417 46.4167 453.104 46.2292 454.188 45.9375C455.271 45.6458 456.521 45.3125 457.938 44.9375C459.396 44.5208 460.917 44.0833 462.5 43.625C464.125 43.1667 465.625 42.75 467 42.375C468.375 41.9583 469.5 41.625 470.375 41.375C471.292 41.125 471.792 41 471.875 41C472.125 41 472.354 41.0625 472.562 41.1875C472.771 41.3125 472.875 41.5417 472.875 41.875ZM424.125 51.875C423.875 51.0417 423.375 50.2292 422.625 49.4375C421.917 48.6458 421.083 47.9375 420.125 47.3125C419.208 46.6875 418.229 46.1875 417.188 45.8125C416.146 45.3958 415.167 45.1875 414.25 45.1875C413.5 45.1875 412.771 45.3125 412.062 45.5625C411.354 45.8125 410.646 46.1458 409.938 46.5625C409.271 46.9375 408.625 47.375 408 47.875C407.375 48.3333 406.792 48.7708 406.25 49.1875C404.625 50.5625 403.062 52.5 401.562 55C400.104 57.4583 398.812 60.125 397.688 63C396.604 65.8333 395.729 68.6667 395.062 71.5C394.396 74.3333 394.062 76.7917 394.062 78.875C394.062 79.7917 394.208 80.6875 394.5 81.5625C394.833 82.3958 395.292 83.1458 395.875 83.8125C396.458 84.4375 397.146 84.9583 397.938 85.375C398.729 85.75 399.604 85.9375 400.562 85.9375C403.062 85.9375 405.375 85.5 407.5 84.625C409.625 83.7083 411.542 82.4792 413.25 80.9375C415 79.3542 416.542 77.4792 417.875 75.3125C419.208 73.1458 420.333 70.8125 421.25 68.3125C422.167 65.7708 422.854 63.1042 423.312 60.3125C423.812 57.5208 424.083 54.7083 424.125 51.875ZM518.875 48.5625C518.875 49.1875 518.583 49.7292 518 50.1875C517.458 50.6042 516.729 51 515.812 51.375C514.896 51.75 513.854 52.1042 512.688 52.4375C511.562 52.7292 510.438 53.0625 509.312 53.4375C506.604 54.2708 503.812 55.4792 500.938 57.0625C498.104 58.6042 495.146 60.9375 492.062 64.0625C489.646 66.5208 487.562 69.1042 485.812 71.8125C484.104 74.4792 482.625 77.3125 481.375 80.3125C480.125 83.3125 479.062 86.5 478.188 89.875C477.312 93.2083 476.562 96.7708 475.938 100.562C475.479 101.062 475.083 101.5 474.75 101.875C474.417 102.25 474.062 102.562 473.688 102.812C473.312 103.062 472.875 103.25 472.375 103.375C471.917 103.542 471.312 103.625 470.562 103.625C469.479 103.625 468.625 103.146 468 102.188C467.417 101.271 466.979 100.167 466.688 98.875C466.396 97.625 466.208 96.3542 466.125 95.0625C466.083 93.7708 466.062 92.75 466.062 92C466.062 91.2083 466.083 90.2083 466.125 89C466.167 87.75 466.208 86.3958 466.25 84.9375C466.333 83.4792 466.417 81.9792 466.5 80.4375C466.583 78.8542 466.646 77.3333 466.688 75.875C466.771 74.4167 466.833 73.0833 466.875 71.875C466.917 70.625 466.938 69.6042 466.938 68.8125C466.938 66.8958 466.896 65.3125 466.812 64.0625C466.771 62.8125 466.708 61.75 466.625 60.875C466.542 60 466.438 59.2292 466.312 58.5625C466.188 57.8542 466.083 57.1042 466 56.3125C465.917 55.4792 465.833 54.5208 465.75 53.4375C465.708 52.3125 465.688 50.875 465.688 49.125C465.688 48.25 465.875 47.4167 466.25 46.625C466.625 45.7917 467.104 45.0833 467.688 44.5C468.312 43.875 469 43.3958 469.75 43.0625C470.542 42.6875 471.312 42.5 472.062 42.5C472.938 42.5 473.75 42.6875 474.5 43.0625C475.25 43.4375 475.896 43.9167 476.438 44.5C476.979 45.0833 477.396 45.7708 477.688 46.5625C477.979 47.3125 478.125 48.0833 478.125 48.875C478.125 50.4583 478.021 52.3542 477.812 54.5625C477.604 56.7292 477.375 58.9583 477.125 61.25C476.917 63.5 476.729 65.6875 476.562 67.8125C476.396 69.8958 476.333 71.6458 476.375 73.0625C478.167 69.6458 480.229 66.1875 482.562 62.6875C484.938 59.1875 487.562 56.0208 490.438 53.1875C493.354 50.3125 496.5 47.9792 499.875 46.1875C503.25 44.3542 506.854 43.4375 510.688 43.4375C511.438 43.4375 512.292 43.5208 513.25 43.6875C514.208 43.8542 515.104 44.1458 515.938 44.5625C516.771 44.9792 517.458 45.5208 518 46.1875C518.583 46.8125 518.875 47.6042 518.875 48.5625ZM554.625 39.25C554.625 38.7917 554.5 38.375 554.25 38C554 37.625 553.688 37.3125 553.312 37.0625C552.979 36.8125 552.604 36.625 552.188 36.5C551.812 36.3333 551.479 36.25 551.188 36.25C549.354 36.25 547.479 36.9167 545.562 38.25C543.646 39.5417 541.854 41.3542 540.188 43.6875C538.521 46.0208 537.062 48.7917 535.812 52C534.562 55.2083 533.708 58.6875 533.25 62.4375C533.833 62.0625 534.604 61.5208 535.562 60.8125C536.521 60.1042 537.542 59.3333 538.625 58.5C539.75 57.625 540.854 56.75 541.938 55.875C543.062 55 544.062 54.1875 544.938 53.4375C546.854 51.8125 548.438 50.375 549.688 49.125C550.938 47.8333 551.917 46.6667 552.625 45.625C553.375 44.5417 553.896 43.5 554.188 42.5C554.479 41.4583 554.625 40.375 554.625 39.25ZM583.625 65.9375C583.625 67.3958 583.083 68.9792 582 70.6875C580.917 72.3958 579.375 74.3125 577.375 76.4375C575.083 78.8542 572.562 81.1042 569.812 83.1875C567.062 85.2292 564.229 87.0208 561.312 88.5625C558.396 90.0625 555.438 91.25 552.438 92.125C549.438 93 546.542 93.4375 543.75 93.4375C537.208 93.4375 532.146 91.3333 528.562 87.125C524.979 82.9167 523.188 76.75 523.188 68.625C523.188 66.0417 523.417 63.4167 523.875 60.75C524.333 58.0417 525 55.375 525.875 52.75C526.792 50.125 527.917 47.5833 529.25 45.125C530.625 42.6667 532.208 40.375 534 38.25C535.125 36.9583 536.375 35.6458 537.75 34.3125C539.125 32.9792 540.646 31.7917 542.312 30.75C543.979 29.6667 545.792 28.7917 547.75 28.125C549.75 27.4583 551.917 27.125 554.25 27.125C555.917 27.125 557.417 27.4583 558.75 28.125C560.083 28.75 561.208 29.5625 562.125 30.5625C563.042 31.5625 563.729 32.6875 564.188 33.9375C564.688 35.1875 564.938 36.4167 564.938 37.625C564.938 40.1667 564.25 42.75 562.875 45.375C561.5 47.9583 559.562 50.5833 557.062 53.25C554.562 55.875 551.562 58.5208 548.062 61.1875C544.562 63.8125 540.667 66.4375 536.375 69.0625C535.792 69.3958 535.208 69.7708 534.625 70.1875C534.042 70.5625 533.75 71.0417 533.75 71.625C533.75 72.875 533.917 74.1875 534.25 75.5625C534.583 76.9375 535.188 78.2083 536.062 79.375C536.938 80.5 538.104 81.4375 539.562 82.1875C541.062 82.9375 542.958 83.3125 545.25 83.3125C548.167 83.3125 551.125 82.8542 554.125 81.9375C557.167 80.9792 560.125 79.6667 563 78C565.917 76.3333 568.729 74.3542 571.438 72.0625C574.188 69.7708 576.75 67.2917 579.125 64.625C580.458 63.1667 581.521 62.4375 582.312 62.4375C582.771 62.4375 583.104 62.7083 583.312 63.25C583.521 63.7917 583.625 64.6875 583.625 65.9375Z" fill="url(#paint0_linear_657_80)"/>
<defs>
<linearGradient id="paint0_linear_657_80" x1="462.5" y1="-31.5" x2="327" y2="369" gradientUnits="userSpaceOnUse">
<stop stop-color="#EB1B1B"/>
<stop offset="1" stop-color="#761010"/>
</linearGradient>
</defs>
</svg>
