<svg width="800" height="800" viewBox="0 0 800 800" fill="none" xmlns="http://www.w3.org/2000/svg">
<g id="sound-mute">
<path id="Vector" d="M105.278 464.353C81.5114 424.743 81.5114 375.256 105.278 335.646C112.531 323.558 124.546 315.09 138.369 312.326L194.803 301.039C198.165 300.366 201.196 298.563 203.391 295.929L272.361 213.166C311.779 165.864 331.488 142.212 349.076 148.58C366.666 154.948 366.666 185.735 366.666 247.309V552.69C366.666 614.263 366.666 645.05 349.076 651.42C331.488 657.786 311.779 634.136 272.361 586.833L203.391 504.07C201.196 501.436 198.165 499.633 194.803 498.96L138.369 487.673C124.546 484.91 112.531 476.443 105.278 464.353Z" stroke="#DC2626" stroke-width="66.6667"/>
<path id="Vector_2" d="M500 500L700 300" stroke="#DC2626" stroke-width="66.6667" stroke-linecap="round"/>
<path id="Vector_3" d="M700 500L500 300" stroke="#DC2626" stroke-width="66.6667" stroke-linecap="round"/>
</g>
</svg>
